<svg width="75" height="15" viewBox="0 0 75 15" fill="none" xmlns="http://www.w3.org/2000/svg">
<path fill-rule="evenodd" clip-rule="evenodd" d="M49.3513 8.04808C49.3957 8.33913 49.4179 8.56301 49.4845 8.7869C49.9727 10.869 51.5926 12.2571 53.7007 12.4362C55.5647 12.593 57.0293 11.8765 58.1166 10.3317C58.6492 9.59289 59.5147 9.45856 60.2026 10.0631C60.602 10.3989 60.6464 10.8467 60.3357 11.272C60.1582 11.4959 60.0029 11.7198 59.8253 11.9661C59.1152 12.9512 58.1832 13.6228 57.0293 14.0258C55.1653 14.6751 53.3013 14.7647 51.4594 14.0706C48.9741 13.1527 47.5095 11.3168 47.0879 8.69735C46.8438 7.08537 46.9991 5.47339 47.7314 4.01813C48.7965 1.93599 50.4608 0.659838 52.7687 0.279232C54.2998 0.032957 55.8088 0.189677 57.229 0.883724C59.2484 1.84643 60.4689 3.4808 60.9349 5.6525C61.068 6.25699 61.1124 6.86148 61.1568 7.46597C61.2012 7.84658 61.0236 8.0033 60.6464 8.02569C60.4689 8.02569 60.3135 8.02569 60.136 8.02569C56.6964 8.02569 53.2569 8.02569 49.8395 8.02569C49.6842 8.04808 49.5732 8.04808 49.3513 8.04808ZM58.738 5.76444C58.4495 3.81663 56.1195 2.1151 53.967 2.24943C51.7257 2.38376 49.5066 4.10768 49.4179 5.76444C52.5024 5.76444 55.6313 5.76444 58.738 5.76444Z" fill="#6E7184"/>
<path fill-rule="evenodd" clip-rule="evenodd" d="M31.7319 7.98154C31.7541 8.18304 31.7763 8.31738 31.7985 8.4741C32.2201 10.7801 34.0841 12.3698 36.3919 12.4145C38.145 12.4369 39.4986 11.7205 40.5194 10.2876C41.052 9.52637 42.0062 9.43682 42.6719 10.1085C42.9825 10.4443 43.0491 10.8473 42.7384 11.2503C42.6053 11.4518 42.4722 11.6309 42.3168 11.7876C41.5623 12.9071 40.5194 13.6235 39.2545 14.0489C37.3905 14.6758 35.5265 14.7206 33.7291 14.0041C31.155 12.9966 29.7126 11.004 29.4019 8.22782C29.2466 6.88449 29.3797 5.58594 29.9345 4.35455C31.0218 2.02612 32.7749 0.593231 35.3268 0.257399C36.6804 0.0782885 38.034 0.190233 39.2767 0.705176C41.5402 1.64551 42.8494 3.41422 43.3598 5.80983C43.4485 6.34716 43.5151 6.92927 43.5373 7.4666C43.5595 7.91438 43.4707 8.00393 43.0047 8.00393C42.2059 8.00393 41.3626 8.00393 40.5416 8.00393C37.7899 8.00393 35.0383 8.00393 32.3311 8.00393C32.1313 7.98154 31.9538 7.98154 31.7319 7.98154ZM41.1629 5.69788C40.8744 3.77244 38.611 2.13806 36.3919 2.18284C34.2394 2.22762 31.9982 3.97394 31.8207 5.69788C34.9274 5.69788 38.0118 5.69788 41.1629 5.69788Z" fill="#6E7184"/>
<path fill-rule="evenodd" clip-rule="evenodd" d="M70.3437 9.01074C70.5212 9.16746 70.6099 9.25702 70.7209 9.34657C71.9192 10.3765 73.1175 11.4064 74.2936 12.4363C74.3602 12.5034 74.4711 12.593 74.5377 12.6602C74.9815 13.1079 75.0259 13.7572 74.6043 14.205C74.2048 14.6528 73.5835 14.72 73.1175 14.3393C72.2743 13.6453 71.4754 12.9288 70.6543 12.2348C69.4782 11.2273 68.3243 10.2197 67.1482 9.21224C67.0595 9.12268 66.9263 9.03313 66.7488 8.89879C66.7488 9.14507 66.7266 9.3018 66.7266 9.45852C66.7266 12.3019 66.7266 10.175 66.7266 13.0184C66.7266 13.1527 66.7266 13.2871 66.7266 13.4214C66.6822 14.0483 66.2162 14.4961 65.5949 14.4513C64.9957 14.4289 64.5963 13.9811 64.5741 13.3542C64.5741 13.2199 64.5741 13.0856 64.5741 12.9512C64.5741 7.33156 64.5741 6.68227 64.5741 1.06261C64.5741 0.8835 64.5741 0.726776 64.5741 0.547663C64.5741 0.14466 64.6185 0.0774924 64.9957 0.0774924C65.5061 0.0551034 66.0165 0.0551034 66.5269 0.0551034C67.7474 0.0551034 69.0122 0.0998815 70.2327 0.0327143C72.2964 -0.0568421 74.6043 1.62234 74.8262 4.06275C75.0259 6.25688 73.5391 8.33906 71.3201 8.78685C71.0316 8.85401 70.7209 8.94357 70.3437 9.01074ZM66.5934 7.28678C66.7266 7.30917 66.8154 7.30917 66.8819 7.30917C67.9027 7.30917 68.9457 7.30917 69.9664 7.30917C70.2549 7.30917 70.5656 7.28678 70.854 7.17483C71.8082 6.88377 72.5627 6.30166 72.8068 5.27176C73.2285 3.50302 71.9192 1.89101 70.1218 1.89101C69.0566 1.89101 68.0136 1.89101 66.9263 1.89101C66.7932 1.89101 66.6822 1.9134 66.5491 1.9134C66.5934 3.70452 66.5934 5.47326 66.5934 7.28678Z" fill="#6E7184"/>
<path fill-rule="evenodd" clip-rule="evenodd" d="M23.7433 8.00276C21.7017 8.00276 19.7268 8.00276 17.7074 8.00276C17.7074 8.18186 17.6852 8.33858 17.6852 8.4953C17.6852 10.0625 17.6852 11.6072 17.6852 13.1744C17.6852 13.3759 17.6852 13.5774 17.6409 13.7341C17.4855 14.2043 16.9973 14.4953 16.5313 14.4729C16.0209 14.4281 15.5993 14.0252 15.5327 13.5102C15.5106 13.3759 15.5327 13.264 15.5327 13.1296C15.5327 7.555 15.5106 6.88336 15.5106 1.33111C15.5106 1.10723 15.5327 0.883349 15.5993 0.681856C15.7768 0.211706 16.265 -0.0569511 16.7754 0.0102132C17.2414 0.0773774 17.6409 0.480363 17.6852 0.972901C17.7074 1.12962 17.6852 1.26395 17.6852 1.42066C17.6852 4.28634 17.7074 2.24902 17.7074 5.1147C17.7074 5.2938 17.7296 5.45052 17.7296 5.60723C18.1069 5.69679 23.3438 5.69679 23.7433 5.60723C23.7433 5.47291 23.7654 5.33858 23.7654 5.18186C23.7654 3.92813 23.7654 2.65201 23.7654 1.39827C23.7654 1.26395 23.7654 1.15201 23.7654 1.01768C23.8098 0.457975 24.2315 0.0326013 24.7862 0.0102132C25.341 -0.0121749 25.8514 0.413199 25.9179 0.972901C25.9401 1.10723 25.9179 1.21917 25.9179 1.3535C25.9179 5.27141 25.9179 9.16694 25.9179 13.0849C25.9179 13.2192 25.9179 13.3311 25.9179 13.4655C25.8514 14.0252 25.3632 14.4729 24.8084 14.4505C24.2536 14.4281 23.8098 13.9804 23.7433 13.4207C23.7433 13.2863 23.7433 13.1744 23.7433 13.0401C23.7433 11.5401 23.7433 9.9953 23.7433 8.4953C23.7433 8.36097 23.7433 8.20425 23.7433 8.00276Z" fill="#6E7184"/>
<path fill-rule="evenodd" clip-rule="evenodd" d="M6.07954 14.563C4.63715 14.5406 3.28352 14.2272 2.04084 13.4659C1.50826 13.1525 1.02007 12.7495 0.620639 12.2793C0.420923 12.033 0.176826 11.7867 0.088063 11.4733C-0.0450809 11.0703 -0.0672716 10.6225 0.309969 10.2643C0.731592 9.86129 1.30855 9.70457 1.88551 10.0852C2.44027 10.4882 2.70656 11.0031 3.17256 11.4733C3.83828 12.145 4.70372 12.5032 5.63573 12.6151C6.50116 12.7047 7.34441 12.6823 8.18765 12.3913C8.52051 12.2569 8.87556 12.1002 9.16404 11.8763C9.69662 11.2718 9.85195 10.421 9.20842 9.8389C8.89775 9.57023 8.49832 9.36873 8.09889 9.18962C7.1225 8.76423 6.10173 8.47317 5.08096 8.2045C4.23771 8.003 3.43885 7.73433 2.59561 7.48805C2.28494 7.39849 1.97427 7.21938 1.68579 7.06266C0.909117 6.63727 0.465304 5.9656 0.33216 5.11481C0.088063 3.34608 0.731592 1.75646 2.26275 0.972839C4.65934 -0.21378 7.14469 -0.101835 9.54128 1.2639C9.98509 1.51018 10.4067 1.89079 10.784 2.22663C11.0724 2.4729 11.2943 2.83113 11.4053 3.21174C11.5162 3.68191 11.2943 4.17447 10.7174 4.30881C10.2292 4.42075 9.78538 4.26403 9.43033 3.88342C9.36376 3.81625 9.29718 3.72669 9.2528 3.65952C8.69804 2.80874 7.87698 2.33857 6.90059 2.15946C5.9242 1.98035 4.94782 2.00274 4.01581 2.38335C3.68295 2.51768 3.3279 2.6968 3.06161 2.94307C2.66218 3.48041 2.50684 4.19686 3.03942 4.86853C3.46104 5.27154 3.94924 5.49543 4.48181 5.60737C5.65792 5.89843 6.85621 6.21188 8.03232 6.50293C8.7868 6.70443 9.51909 6.95071 10.207 7.35372C11.0946 7.82389 11.7382 8.51795 11.9601 9.52545C12.2263 10.7569 11.9601 11.9211 11.0059 12.8166C9.91852 13.8018 8.67585 14.3391 7.23345 14.4958C6.83402 14.5406 6.43459 14.5406 6.07954 14.563Z" fill="#6E7184"/>
</svg>
