<svg width="20" height="25" viewBox="0 0 20 25" fill="none" xmlns="http://www.w3.org/2000/svg">
<path d="M18.8683 7.94419L9.58521 16.5407C9.33803 16.7604 9.06338 16.8702 8.76127 16.8702C8.43169 16.8702 8.12958 16.7329 7.88239 16.5132L3.59789 12.0914C3.46056 11.9541 3.46056 11.7069 3.59789 11.5695L4.80634 10.3886C4.94366 10.2512 5.19085 10.2512 5.32817 10.3886L8.56901 13.6843C8.70634 13.8217 8.92606 13.8217 9.09085 13.6843L18.6486 4.86813C18.8408 4.70335 18.7859 4.37377 18.5662 4.26391L10.0246 0.0617958C9.85986 -0.0205986 9.64014 -0.0205986 9.47535 0.0617958L0.384507 4.56602C0.137324 4.67588 0 4.92306 0 5.17025V15.7167C0 15.7991 1.04361e-07 15.854 0.0274649 15.9364C0.384507 16.9252 2.33451 23.5991 9.64014 24.7252C9.72254 24.7252 9.77747 24.7252 9.85986 24.7252C17.0282 23.6266 19.0606 17.1449 19.4451 15.9914C19.4725 15.8815 19.5 15.7717 19.5 15.6618V8.21884C19.5 7.91673 19.1155 7.75194 18.8683 7.94419Z" fill="white"/>
</svg>
