<svg width="49" height="49" viewBox="0 0 49 49" fill="none" xmlns="http://www.w3.org/2000/svg">
<path d="M24.5 36.0801C28.7813 36.0801 32.252 32.6094 32.252 28.3281C32.252 24.0468 28.7813 20.5762 24.5 20.5762C20.2187 20.5762 16.748 24.0468 16.748 28.3281C16.748 32.6094 20.2187 36.0801 24.5 36.0801Z" fill="#393C4B"/>
<path d="M35.8205 8.70898L35.3251 6.2319C35.0577 4.89454 33.8736 3.92383 32.5098 3.92383H16.4885C15.1247 3.92383 13.9406 4.89454 13.6732 6.2319L13.1777 8.70898H35.8205Z" fill="#393C4B"/>
<path d="M44.6934 11.5801C41.3224 11.5801 5.88421 11.5801 4.30664 11.5801C1.93196 11.5801 0 13.512 0 15.8867V40.7695C0 43.1442 1.93196 45.0762 4.30664 45.0762H44.6934C47.068 45.0762 49 43.1442 49 40.7695V15.8867C49 13.512 47.068 11.5801 44.6934 11.5801ZM12.25 20.5762H7.65625C6.86345 20.5762 6.2207 19.9334 6.2207 19.1406C6.2207 18.3478 6.86345 17.7051 7.65625 17.7051H12.25C13.0428 17.7051 13.6855 18.3478 13.6855 19.1406C13.6855 19.9334 13.0428 20.5762 12.25 20.5762ZM24.5 38.9512C18.6424 38.9512 13.877 34.1857 13.877 28.3281C13.877 22.4705 18.6424 17.7051 24.5 17.7051C30.3576 17.7051 35.123 22.4705 35.123 28.3281C35.123 34.1857 30.3576 38.9512 24.5 38.9512Z" fill="#393C4B"/>
</svg>
