<svg width="34" height="34" viewBox="0 0 34 34" fill="none" xmlns="http://www.w3.org/2000/svg">
<path d="M17.7217 27.0682V3.72612H26.7352C26.7352 3.72612 21.8433 17.0833 21.9335 17.2776C22.218 20.1988 24.7576 22.44 27.776 22.44C30.7874 22.44 33.2507 20.2057 33.6045 17.2914C33.7017 17.0902 28.8099 3.72612 28.8099 3.72612H29.6494V2.23429H17.7148V0H16.2646V2.23429H4.32986V3.72612H5.17639C5.17639 3.72612 0.347 16.8473 0.347 17C0.492714 20.06 3.09476 22.44 6.20333 22.44C9.3119 22.44 11.9209 20.0531 12.136 17C12.136 16.9098 7.24414 3.72612 7.24414 3.72612H16.2576V27.0612H6.10352e-05V34H34.0001V27.0682H17.7217ZM27.776 20.9551C25.6805 20.9551 23.9388 19.5396 23.4323 17.6731H32.1127C31.6131 19.5327 29.8784 20.9551 27.776 20.9551ZM23.585 16.2576L27.7829 5.07224L31.9046 16.2576H23.585ZM6.22414 20.9551C4.12863 20.9551 2.387 19.5396 1.88047 17.6731H10.5609C10.0543 19.5327 8.31965 20.9551 6.22414 20.9551ZM2.09557 16.2576L6.29353 5.07224L10.4152 16.2576H2.09557ZM32.6262 32.5845H1.45027V28.56H32.6262V32.5845Z" fill="white"/>
</svg>
