<svg width="51" height="51" viewBox="0 0 51 51" fill="none" xmlns="http://www.w3.org/2000/svg">
<path d="M47.0891 43.3332C47.0891 43.3332 41.4286 33.6045 40.4132 31.8597C41.5685 31.5073 42.7991 31.1961 43.3104 30.3132C44.1626 28.8421 42.6457 26.4288 43.044 24.852C43.4543 23.2291 45.8764 21.8248 45.8764 20.1752C45.8764 18.5681 43.3723 16.6905 42.9617 15.0771C42.5607 13.5006 44.073 11.0847 43.2181 9.61535C42.3632 8.14589 39.5156 8.26662 38.3434 7.13868C37.1373 5.97793 37.1411 3.13795 35.6863 2.36008C34.2257 1.57931 31.8518 3.15725 30.2301 2.78347C28.6268 2.41397 27.1944 0 25.5197 0C23.8202 0 21.1171 2.73827 20.6931 2.83681C19.0722 3.21362 16.6953 1.63954 15.2362 2.42362C13.7828 3.20411 13.7918 6.04436 12.5879 7.20704C11.4176 8.33705 8.56995 8.22155 7.71765 9.69267C6.86549 11.1635 8.38237 13.5762 7.9842 15.1539C7.58493 16.7356 5.07848 18.3382 5.07848 20.1674C5.07848 21.8171 7.50664 23.217 7.91942 24.839C8.32063 26.4156 6.8083 28.8312 7.66321 30.3011C8.12864 31.1011 9.18464 31.4296 10.2393 31.7453C10.3623 31.7821 10.5951 31.9198 10.4374 32.1495C9.71595 33.3949 3.90878 43.4173 3.90878 43.4173C3.44679 44.2144 3.82195 44.8978 4.74219 44.9365L9.24666 45.1243C10.1669 45.1631 11.3213 45.8318 11.8125 46.6109L14.2161 50.425C14.7073 51.2041 15.4867 51.1895 15.9486 50.3925C15.9486 50.3925 22.6739 38.7814 22.6767 38.7781C22.8116 38.6205 22.9472 38.6529 23.0121 38.708C23.748 39.3345 24.7738 39.9596 25.6299 39.9596C26.4696 39.9596 27.247 39.3712 28.0161 38.715C28.0786 38.6617 28.2309 38.5524 28.3423 38.7792C28.3441 38.7828 35.062 50.3303 35.062 50.3303C35.5251 51.1264 36.3046 51.1399 36.7943 50.3598L39.1912 46.5411C39.681 45.7615 40.8342 45.0901 41.7544 45.05L46.2585 44.8538C47.1783 44.8134 47.5522 44.1291 47.0891 43.3332ZM32.9639 32.8888C27.9835 35.7863 22.0055 35.4758 17.4394 32.5957C10.7488 28.3101 8.54735 19.4447 12.5694 12.5027C16.6374 5.48067 25.5798 3.00289 32.6651 6.86179C32.7023 6.88205 32.7391 6.903 32.7761 6.92367C32.8286 6.95275 32.8809 6.98225 32.9332 7.01202C35.1191 8.27227 37.0145 10.1013 38.3718 12.4342C42.52 19.5647 40.0942 28.7406 32.9639 32.8888Z" fill="#393C4B"/>
<path d="M31.8254 9.1105C31.8047 9.09851 31.7838 9.08735 31.7631 9.0755C27.9782 6.88494 23.1541 6.72479 19.1111 9.07701C13.1114 12.5675 11.0698 20.2882 14.5603 26.2878C15.6254 28.1186 17.085 29.5801 18.7689 30.6289C18.9121 30.7196 19.0569 30.8088 19.2049 30.8945C25.2111 34.3741 32.9277 32.3186 36.4072 26.3127C39.8865 20.3066 37.8316 12.5901 31.8254 9.1105ZM33.3279 18.9291L31.2249 20.979C30.5735 21.6138 30.1664 22.8669 30.3204 23.7634L30.8168 26.6578C30.9706 27.5544 30.4378 27.9415 29.6326 27.5183L27.0331 26.1516C26.228 25.7284 24.9105 25.7284 24.1054 26.1516L21.506 27.5183C20.7009 27.9415 20.1679 27.5544 20.3217 26.6578L20.8182 23.7634C20.972 22.8669 20.5648 21.6138 19.9135 20.979L17.8106 18.9291C17.1591 18.2943 17.3628 17.6678 18.2629 17.5369L21.1691 17.1146C22.0692 16.9838 23.1351 16.2093 23.5377 15.3937L24.8374 12.7603C25.2399 11.9447 25.8987 11.9447 26.3012 12.7603L27.601 15.3937C28.0036 16.2093 29.0693 16.9838 29.9696 17.1146L32.8757 17.5369C33.7757 17.6678 33.9793 18.2943 33.3279 18.9291Z" fill="#393C4B"/>
</svg>
