<svg width="48" height="48" viewBox="0 0 48 48" fill="none" xmlns="http://www.w3.org/2000/svg">
<path d="M9.07396 48C16.5368 48 31.4684 48 38.9313 48C39.5467 48 40.0502 47.4965 40.0502 46.8811C40.0502 39.1217 40.0502 15.8434 40.0502 15.8434H7.95508C7.95508 15.8434 7.95508 39.1217 7.95508 46.8811C7.95508 47.5021 8.45298 48 9.07396 48ZM30.4446 21.8629C30.4446 20.8559 31.2614 20.0336 32.274 20.0336H32.3131C33.3201 20.0336 34.1424 20.8503 34.1424 21.8629V41.986C34.1424 42.993 33.3257 43.8153 32.3131 43.8153H32.274C31.267 43.8153 30.4446 42.9985 30.4446 41.986V21.8629ZM22.1537 21.8629C22.1537 20.8559 22.9705 20.0336 23.9831 20.0336H24.0222C25.0292 20.0336 25.8515 20.8503 25.8515 21.8629V41.986C25.8515 42.993 25.0347 43.8153 24.0222 43.8153H23.9831C22.9761 43.8153 22.1537 42.9985 22.1537 41.986V21.8629ZM13.8628 21.8629C13.8628 20.8559 14.6796 20.0336 15.6921 20.0336H15.7313C16.7383 20.0336 17.5607 20.8503 17.5607 21.8629V41.986C17.5607 42.993 16.7438 43.8153 15.7313 43.8153H15.6921C14.6851 43.8153 13.8628 42.9985 13.8628 41.986V21.8629Z" fill="#393C4B"/>
<path d="M31.1543 5.31469V2.7972C31.1543 1.25315 29.9011 0 28.3571 0H19.641C18.0969 0 16.8438 1.25315 16.8438 2.7972V5.31469H19.0815V3.35664C19.0815 2.74126 19.585 2.23776 20.2004 2.23776H27.792C28.4074 2.23776 28.9109 2.74126 28.9109 3.35664V5.31469H31.1543Z" fill="#393C4B"/>
<path d="M6.55664 8.67134V12.4867C6.55664 13.1021 7.06014 13.6056 7.67552 13.6056H40.3245C40.9399 13.6056 41.4434 13.1021 41.4434 12.4867V8.67134C41.4434 8.05596 40.9399 7.55246 40.3245 7.55246H7.67552C7.06014 7.55246 6.55664 8.05036 6.55664 8.67134Z" fill="#393C4B"/>
</svg>
