<svg width="59" height="59" viewBox="0 0 59 59" fill="none" xmlns="http://www.w3.org/2000/svg">
<g clip-path="url(#clip0)">
<path d="M29.0839 0.164536C28.9799 0.286093 26.5391 3.18181 26.5391 6.80671L26.5394 6.88074C26.5733 10.5405 29.0999 13.428 29.2074 13.5491C29.2976 13.6507 29.4274 13.7082 29.5631 13.707C29.6989 13.7058 29.8276 13.6458 29.9159 13.5426C30.0199 13.421 32.4613 10.5258 32.4616 6.90027L32.4613 6.82624C32.4266 3.16667 29.8998 0.27913 29.7923 0.158027C29.702 0.056301 29.5724 -0.0012228 29.4364 -1.17744e-05C29.3008 0.00135063 29.1721 0.0612965 29.0839 0.164536Z" fill="#393C4B"/>
<path d="M6.29456 19.1619C6.38357 19.2947 8.51588 22.4247 12.0071 23.3999L12.0786 23.4196C15.6125 24.3716 19.0735 22.7151 19.2188 22.6441C19.3409 22.5846 19.4312 22.4751 19.4666 22.3441C19.502 22.213 19.4788 22.0729 19.4032 21.9602C19.3141 21.8274 17.1826 18.6967 13.6908 17.7211L13.6193 17.7014C10.0854 16.7503 6.62441 18.4069 6.47894 18.4778C6.35662 18.5373 6.2664 18.6468 6.23098 18.778C6.19571 18.909 6.21887 19.0491 6.29456 19.1619Z" fill="#393C4B"/>
<path d="M52.7058 19.1619C52.6168 19.2947 50.4845 22.4247 46.9933 23.3999L46.9218 23.4196C43.3879 24.3716 39.9269 22.7151 39.7816 22.6441C39.6595 22.5846 39.5692 22.4751 39.5338 22.3441C39.4984 22.213 39.5216 22.0729 39.5972 21.9602C39.6863 21.8274 41.8178 18.6967 45.3096 17.7211L45.3811 17.7014C48.915 16.7503 52.376 18.4069 52.5215 18.4778C52.6438 18.5373 52.734 18.6468 52.7694 18.778C52.8047 18.909 52.7815 19.0491 52.7058 19.1619Z" fill="#393C4B"/>
<path d="M45.7527 6.17955C45.5365 6.19635 40.4214 6.63248 36.9471 10.1069L36.8763 10.1782C33.4009 13.7183 33.055 18.9077 33.0422 19.1268C33.0311 19.3107 33.1003 19.4899 33.2317 19.6191C33.3631 19.7482 33.5438 19.8139 33.7273 19.7997C33.9433 19.7827 39.0586 19.3479 42.534 15.8731L42.6046 15.8019C46.079 12.2609 46.4249 7.07147 46.438 6.85243C46.4488 6.66835 46.3797 6.48897 46.2483 6.35984C46.117 6.23117 45.9361 6.16532 45.7527 6.17955Z" fill="#393C4B"/>
<path d="M13.2509 6.17955C13.467 6.19635 18.5821 6.63248 22.0564 10.1069L22.1272 10.1782C25.6026 13.7183 25.9485 18.9077 25.9613 19.1268C25.9724 19.3107 25.9032 19.4899 25.7718 19.6191C25.6404 19.7482 25.4597 19.8139 25.2762 19.7997C25.0602 19.7827 19.9448 19.3479 16.4695 15.8731L16.3989 15.8019C12.9245 12.2609 12.5786 7.07147 12.5656 6.85243C12.5547 6.66835 12.6239 6.48897 12.7552 6.35984C12.8865 6.23117 13.0674 6.16532 13.2509 6.17955Z" fill="#393C4B"/>
<path d="M10.5566 38.9427C10.5734 38.7263 11.0095 33.6114 14.484 30.1371L14.5553 30.0663C18.0954 26.5909 23.2848 26.245 23.5038 26.2322C23.6877 26.2211 23.8671 26.2903 23.9961 26.4217C24.1252 26.5529 24.1909 26.7338 24.1767 26.9175C24.1597 27.1335 23.725 32.2489 20.2501 35.7242L20.179 35.7947C16.6379 39.2692 11.4485 39.6151 11.2295 39.6281C11.0454 39.639 10.866 39.5698 10.7369 39.4384C10.6082 39.307 10.5424 39.126 10.5566 38.9427Z" fill="#393C4B"/>
<path d="M48.4443 38.9427C48.4275 38.7263 47.9914 33.6114 44.5169 30.1371L44.4456 30.0663C40.9055 26.5909 35.7161 26.245 35.497 26.2322C35.3131 26.2211 35.1339 26.2903 35.0048 26.4217C34.8758 26.5529 34.8099 26.7338 34.8242 26.9175C34.8411 27.1335 35.2759 32.2489 38.7508 35.7242L38.8219 35.7947C42.363 39.2692 47.5524 39.6151 47.7714 39.6281C47.9555 39.639 48.1349 39.5698 48.264 39.4384C48.3927 39.307 48.4585 39.126 48.4443 38.9427Z" fill="#393C4B"/>
<path d="M34.1301 55.176C34.1301 55.176 34.0649 55.1588 33.9453 55.128L31.8725 36.42C31.5693 33.8355 31.7562 31.3224 32.5441 28.868C33.0676 27.237 33.8257 25.6969 34.8969 24.3533C35.3822 23.7446 35.9264 23.1774 36.5257 22.6801C36.6465 22.5799 37.5645 22.033 37.5645 21.9394C37.5645 21.9421 35.879 22.6248 35.7435 22.6974C34.8855 23.1565 34.1144 23.7288 33.3675 24.3486C32.4209 25.2117 31.5826 26.1479 30.8489 27.1824L29.4805 14.8326L28.1295 27.1318C27.3329 26.0103 26.4176 24.991 25.3547 24.1043C24.6196 23.4907 23.8101 22.9685 22.9574 22.5348C22.8319 22.4721 21.4489 21.9533 21.4489 21.9394C21.4489 22.042 22.5848 22.7594 22.7241 22.8828C23.3087 23.4088 23.8502 23.985 24.3196 24.617C25.3077 25.8675 25.9851 27.3597 26.4692 28.868C27.1999 31.1444 27.3936 33.4821 27.1699 35.8664L25.2406 53.4293C23.5243 53.2263 21.898 53.1513 20.7256 53.344C18.1858 53.7619 14.9317 55.322 14.2598 58.0887C18.4684 54.5457 25.0265 56.9506 29.6822 58.1924C32.4685 58.9355 35.4217 59.2828 38.2755 58.7242C40.8036 58.2321 44.0627 56.7352 44.7407 53.9718C41.8684 56.3591 38.5781 56.2773 34.1301 55.176Z" fill="#393C4B"/>
</g>
<defs>
<clipPath id="clip0">
<rect width="59" height="59" fill="white"/>
</clipPath>
</defs>
</svg>
