<svg width="34" height="35" viewBox="0 0 34 35" fill="none" xmlns="http://www.w3.org/2000/svg">
<path d="M26.122 0H0.518333C0.207333 0 0 0.207333 0 0.518264V33.5334C0 33.8444 0.207333 34.0517 0.518264 34.0517H26.1219C26.4329 34.0517 26.6402 33.8444 26.6402 33.5334V0.518264C26.6402 0.207333 26.4329 0 26.122 0ZM1.0366 1.0366H25.6036V14.0975H1.0366V1.0366ZM25.6036 32.9634H1.0366V15.1341H25.6036V32.9634Z" fill="white"/>
<path d="M23.4787 2.74707H3.21345C2.90245 2.74707 2.69519 2.9544 2.69519 3.26533V12.3355C2.69519 12.6465 2.90252 12.9056 3.21345 12.9056H23.4787C23.7897 12.9056 23.9969 12.6982 23.9969 12.3873V3.26533C23.9969 2.9544 23.7896 2.74707 23.4787 2.74707ZM22.9603 11.8172H3.73172V3.78367H22.9603V11.8172Z" fill="white"/>
<path d="M3.21345 21.3018H6.11591C6.42691 21.3018 6.63417 21.0944 6.63417 20.7835V17.8811C6.63417 17.6219 6.42684 17.3628 6.11591 17.3628H3.21345C2.90245 17.3628 2.69519 17.5701 2.69519 17.8811V20.7835C2.69512 21.0944 2.90245 21.3018 3.21345 21.3018ZM3.73172 18.4512H5.59758V20.317H3.73172V18.4512Z" fill="white"/>
<path d="M8.96651 21.3018H11.9208C12.2318 21.3018 12.4391 21.0944 12.4391 20.7835V17.8811C12.4391 17.6219 12.1799 17.3628 11.9208 17.3628H8.96651C8.65551 17.3628 8.44824 17.5701 8.44824 17.8811V20.7835C8.44824 21.0944 8.65558 21.3018 8.96651 21.3018ZM9.48484 18.4512H11.4025V20.317H9.48484V18.4512Z" fill="white"/>
<path d="M14.7196 21.3018H17.6738C17.9848 21.3018 18.1921 21.0944 18.1921 20.7835V17.8811C18.1921 17.6219 17.9848 17.3628 17.6738 17.3628H14.7196C14.4086 17.3628 14.2013 17.5701 14.2013 17.8811V20.7835C14.2012 21.0944 14.4086 21.3018 14.7196 21.3018ZM15.2378 18.4512H17.1555V20.317H15.2378V18.4512Z" fill="white"/>
<path d="M20.4726 21.3018H23.4269C23.7379 21.3018 23.9452 21.0944 23.9452 20.7835V17.8811C23.9452 17.6219 23.7378 17.3628 23.4269 17.3628H20.4726C20.1616 17.3628 19.9543 17.5701 19.9543 17.8811V20.7835C19.9543 21.0944 20.1617 21.3018 20.4726 21.3018ZM20.9909 18.4512H22.9086V20.317H20.9909V18.4512Z" fill="white"/>
<path d="M3.21345 26.5884H6.11591C6.42691 26.5884 6.63417 26.3811 6.63417 26.0701V23.1677C6.63417 22.8567 6.42684 22.6494 6.11591 22.6494H3.21345C2.90245 22.6494 2.69519 22.8567 2.69519 23.1677V26.0701C2.69512 26.3811 2.90245 26.5884 3.21345 26.5884ZM3.73172 23.6859H5.59758V25.5518H3.73172V23.6859Z" fill="white"/>
<path d="M8.96651 26.5884H11.9208C12.2318 26.5884 12.4391 26.3811 12.4391 26.0701V23.1677C12.4391 22.8567 12.1799 22.6494 11.9208 22.6494H8.96651C8.65551 22.6494 8.44824 22.8567 8.44824 23.1677V26.0701C8.44824 26.3811 8.65558 26.5884 8.96651 26.5884ZM9.48484 23.6859H11.4025V25.5518H9.48484V23.6859Z" fill="white"/>
<path d="M14.7196 26.5884H17.6738C17.9848 26.5884 18.1921 26.3811 18.1921 26.0701V23.1677C18.1921 22.8567 17.9848 22.6494 17.6738 22.6494H14.7196C14.4086 22.6494 14.2013 22.8567 14.2013 23.1677V26.0701C14.2012 26.3811 14.4086 26.5884 14.7196 26.5884ZM15.2378 23.6859H17.1555V25.5518H15.2378V23.6859Z" fill="white"/>
<path d="M20.4726 31.8231H23.4269C23.7379 31.8231 23.9452 31.6158 23.9452 31.3049V23.1677C23.9452 22.8567 23.7378 22.6494 23.4269 22.6494H20.4726C20.1616 22.6494 19.9543 22.8567 19.9543 23.1677V31.3049C19.9543 31.6158 20.1617 31.8231 20.4726 31.8231ZM20.9909 23.6859H22.9086V30.7865H20.9909V23.6859Z" fill="white"/>
<path d="M3.21345 31.8233H6.11591C6.42691 31.8233 6.63417 31.6159 6.63417 31.305V28.4025C6.63417 28.0915 6.42684 27.8843 6.11591 27.8843H3.21345C2.90245 27.8843 2.69519 28.0916 2.69519 28.4025V31.305C2.69512 31.6159 2.90245 31.8233 3.21345 31.8233ZM3.73172 28.9208H5.59758V30.7867H3.73172V28.9208Z" fill="white"/>
<path d="M8.96651 31.8233H11.9208C12.2318 31.8233 12.4391 31.6159 12.4391 31.305V28.4025C12.4391 28.0915 12.1799 27.8843 11.9208 27.8843H8.96651C8.65551 27.8843 8.44824 28.0916 8.44824 28.4025V31.305C8.44824 31.6159 8.65558 31.8233 8.96651 31.8233ZM9.48484 28.9208H11.4025V30.7867H9.48484V28.9208Z" fill="white"/>
<path d="M14.7196 31.8233H17.6738C17.9848 31.8233 18.1921 31.6159 18.1921 31.305V28.4025C18.1921 28.0915 17.9848 27.8843 17.6738 27.8843H14.7196C14.4086 27.8843 14.2013 28.0916 14.2013 28.4025V31.305C14.2012 31.6159 14.4086 31.8233 14.7196 31.8233ZM15.2378 28.9208H17.1555V30.7867H15.2378V28.9208Z" fill="white"/>
<path d="M33.8445 11.7652C33.8445 10.3658 32.756 9.22559 31.4604 9.22559H30.7348C29.3872 9.22559 28.4025 10.4177 28.4025 11.7652C28.4025 13.8384 28.558 25.0335 28.558 26.5365C28.558 26.5884 28.558 26.5883 28.558 26.5883V26.6402L30.8384 33.7926C30.8903 34 31.0976 34.1555 31.3567 34.1555C31.564 34.1555 31.7714 34 31.8231 33.7926L33.9481 26.6402V26.5883C34 26.5883 34 26.5365 34 26.5365C33.9481 21.0426 33.8963 17.5182 33.8445 11.7652ZM30.7865 10.2621H31.5121C32.2377 10.2621 32.8078 10.9359 32.8596 11.7651V13.5792H29.5426V11.7651C29.439 10.9359 30.0609 10.2621 30.7865 10.2621ZM31.3567 31.9268L29.8018 27.0548H32.7561L31.3567 31.9268ZM29.5945 26.0182L29.4908 14.6158H32.8079L32.9115 26.0182H29.5945Z" fill="white"/>
<path d="M8.24088 10.1066H9.22565V6.42675H10.5213V5.54565H6.94519V6.42675H8.24088V10.1066Z" fill="white"/>
<path d="M11.4543 10.1066L11.8689 9.12187H13.7866L14.2012 10.1066H15.2897L13.3201 5.54565H12.3354L10.3658 10.1066H11.4543ZM12.8019 6.89318L13.372 8.24071H12.2317L12.8019 6.89318Z" fill="white"/>
<path d="M16.5335 10.1066L17.5183 8.60354L18.503 10.1066H19.7469L18.1921 7.72244L19.5914 5.54565H18.3993L17.5183 6.89318L16.6372 5.54565H15.4451L16.8445 7.77428L15.3414 10.1066H16.5335Z" fill="white"/>
</svg>
