<svg width="54" height="54" viewBox="0 0 54 54" fill="none" xmlns="http://www.w3.org/2000/svg">
<path d="M47.6719 3.26953C46.519 3.26953 45.4396 3.58467 44.5078 4.12562V35.4493C45.5136 35.094 46.5781 34.9102 47.6719 34.9102C50.082 34.9102 52.3009 35.8394 54 37.3657V9.59766C54 6.10759 51.1619 3.26953 47.6719 3.26953Z" fill="#393C4B"/>
<path d="M22.3594 15.9258V22.2539H27.1055C27.9799 22.2539 28.6875 22.9615 28.6875 23.8359C28.6875 24.7104 27.9799 25.418 27.1055 25.418H20.7773H14.4492C13.5748 25.418 12.8672 24.7104 12.8672 23.8359C12.8672 22.9615 13.5748 22.2539 14.4492 22.2539H19.1953V15.9258H9.70312V28.582H17.6133C18.4877 28.582 19.1953 29.2896 19.1953 30.1641V36.4922C19.1953 37.3666 18.4877 38.0742 17.6133 38.0742C16.7388 38.0742 16.0312 37.3666 16.0312 36.4922V31.7461H9.70312V41.2383H22.3594V39.6562C22.3594 35.2948 25.9081 31.7461 30.2695 31.7461C31.144 31.7461 31.8516 32.4537 31.8516 33.3281V41.2383H35.0156V15.9258H22.3594Z" fill="#393C4B"/>
<path d="M53.8007 42.8203C53.0807 40.0271 50.5594 38.0742 47.6719 38.0742C46.2907 38.0742 44.979 38.513 43.8774 39.3426C42.8291 40.1305 41.3438 39.3742 41.3438 38.0789V6.43359H1.58203C0.70759 6.43359 0 7.14118 0 8.01562V49.1484C0 50.0229 0.70759 50.7305 1.58203 50.7305H47.6719C51.9012 50.7305 54.7955 46.6806 53.8007 42.8203ZM38.1797 42.8203C38.1797 43.6948 37.4721 44.4023 36.5977 44.4023H30.2695C29.3951 44.4023 28.6875 43.6948 28.6875 42.8203V35.1805C26.8459 35.834 25.5234 37.5937 25.5234 39.6562V42.8203C25.5234 43.6948 24.8158 44.4023 23.9414 44.4023H8.12109C7.24665 44.4023 6.53906 43.6948 6.53906 42.8203V14.3438C6.53906 13.4693 7.24665 12.7617 8.12109 12.7617H36.5977C37.4721 12.7617 38.1797 13.4693 38.1797 14.3438V42.8203Z" fill="#393C4B"/>
</svg>
