<svg width="38" height="38" viewBox="0 0 38 38" fill="none" xmlns="http://www.w3.org/2000/svg">
<path d="M23.75 4.75C15.8928 4.75 9.5 11.1428 9.5 19C9.5 26.8572 15.8928 33.25 23.75 33.25C31.6072 33.25 38 26.8572 38 19C38 11.1428 31.6072 4.75 23.75 4.75ZM23.75 31.6667C16.7657 31.6667 11.0833 25.9843 11.0833 19C11.0833 12.0157 16.7657 6.33331 23.75 6.33331C30.7343 6.33331 36.4167 12.0157 36.4167 19C36.4167 25.9843 30.7343 31.6667 23.75 31.6667Z" fill="white"/>
<path d="M1.58331 19C1.58331 16.0041 2.65562 13.0934 4.6023 10.8042C4.8853 10.4718 4.84507 9.97155 4.51183 9.68863C4.18096 9.40645 3.67917 9.4443 3.39625 9.7791C1.20605 12.3535 0 15.6284 0 19C0 22.3715 1.20605 25.6464 3.39625 28.2209C3.55322 28.4057 3.77588 28.5 3.99928 28.5C4.18096 28.5 4.36339 28.4381 4.51183 28.3113C4.84507 28.0283 4.88523 27.5281 4.6023 27.1957C2.65562 24.9065 1.58331 21.9958 1.58331 19Z" fill="white"/>
<path d="M6.33331 19C6.33331 16.0041 7.40562 13.0934 9.35231 10.8042C9.63531 10.4718 9.59508 9.97155 9.26184 9.68863C8.93015 9.40645 8.42843 9.4443 8.14625 9.7791C5.95606 12.3535 4.75 15.6284 4.75 19C4.75 22.3715 5.95606 25.6464 8.14625 28.2209C8.30323 28.4057 8.52588 28.5 8.74928 28.5C8.93097 28.5 9.1134 28.4381 9.26184 28.3113C9.59508 28.0283 9.63523 27.5281 9.35231 27.1957C7.40562 24.9065 6.33331 21.9958 6.33331 19Z" fill="white"/>
<path d="M25.2547 19.3858C25.2874 19.2591 25.3328 19.1368 25.3328 19C25.3328 18.4217 25.0056 17.9365 24.5411 17.6601V10.2917C24.5411 9.8541 24.187 9.5 23.7494 9.5C23.3118 9.5 22.9577 9.8541 22.9577 10.2917V17.6601C22.4932 17.9365 22.166 18.4218 22.166 19C22.166 19.8728 22.8765 20.5833 23.7493 20.5833C23.886 20.5833 24.0084 20.538 24.1351 20.5052L27.9396 24.3097C28.0942 24.4643 28.2968 24.5416 28.4993 24.5416C28.7019 24.5416 28.9044 24.4643 29.0591 24.3097C29.3684 24.0004 29.3684 23.4994 29.0591 23.1902L25.2547 19.3858Z" fill="white"/>
</svg>
