<svg width="35" height="35" viewBox="0 0 35 35" fill="none" xmlns="http://www.w3.org/2000/svg">
<path d="M34.2553 23.3012H30.1595V14.1462C30.1595 10.7653 28.8428 7.5861 26.4518 5.19421C24.0601 2.80341 20.8809 1.4866 17.5 1.4866C10.5195 1.4866 4.84046 7.16569 4.84046 14.1461V23.3011H0.744707C0.333457 23.3012 0 23.6346 0 24.0459C0 24.4571 0.333457 24.7906 0.744707 24.7906H1.56386V32.7687C1.56386 33.1799 1.89731 33.5134 2.30856 33.5134H5.58517H8.56386H17.5H26.4361H29.4148H32.6914C33.1026 33.5134 33.4361 33.18 33.4361 32.7687V24.7906H34.2553C34.6665 24.7906 35 24.4571 35 24.0459C35 23.6346 34.6665 23.3012 34.2553 23.3012ZM4.84046 32.024H3.0532V24.7906H4.84046V32.024ZM7.81915 32.024H6.3298V24.7906H7.81915V32.024ZM16.7553 32.024H9.3085V24.7906H16.7553V32.024ZM16.7553 23.3012H9.3085V20.2042H16.7553V23.3012ZM16.7553 18.7148H9.3085V14.1462C9.3085 9.88031 12.586 6.36555 16.7553 5.9882V18.7148ZM25.6915 32.024H18.2447V24.7906H25.6915V32.024ZM25.6915 23.3012H18.2447V20.2042H25.6915V23.3012ZM25.6915 18.7149H18.2447V5.98834C22.414 6.36562 25.6915 9.88038 25.6915 14.1463V18.7149ZM28.6702 32.024H27.1808V24.7906H28.6702V32.024ZM28.6702 23.3012H27.1808V19.4594V14.1461C27.1808 8.80803 22.8381 4.46529 17.5 4.46529C12.1619 4.46529 7.81915 8.80803 7.81915 14.1461V19.4594V23.3012H6.3298V14.1462C6.3298 7.98696 11.3408 2.97602 17.5 2.97602C20.4833 2.97602 23.2884 4.13785 25.3987 6.24735C27.5084 8.35788 28.6702 11.1631 28.6702 14.1463V23.3012ZM31.9468 32.024H30.1595V24.7906H31.9468V32.024Z" fill="white"/>
<path d="M13.9381 12.3164C13.575 12.1232 13.124 12.261 12.9309 12.6241L11.2573 15.7703C11.0641 16.1334 11.2019 16.5844 11.565 16.7775C11.6764 16.8368 11.7961 16.8649 11.9141 16.8649C12.1806 16.8649 12.4384 16.7214 12.5723 16.4697L14.2458 13.3236C14.439 12.9604 14.3011 12.5095 13.9381 12.3164Z" fill="white"/>
<path d="M15.3835 10.8365C15.3738 10.7896 15.3596 10.7427 15.341 10.6973C15.3224 10.6526 15.2993 10.6094 15.2725 10.5692C15.245 10.5282 15.2137 10.4901 15.1794 10.4559C15.1452 10.4217 15.1072 10.3903 15.0661 10.3628C15.026 10.3361 14.9828 10.3129 14.938 10.2951C14.8927 10.2765 14.8457 10.2616 14.7988 10.2527C14.7027 10.2333 14.6037 10.2333 14.5076 10.2527C14.46 10.2616 14.413 10.2765 14.3685 10.2951C14.3231 10.3129 14.2799 10.3361 14.2396 10.3628C14.1987 10.3903 14.1607 10.4217 14.1264 10.4559C14.0922 10.4901 14.0608 10.5282 14.0341 10.5692C14.0073 10.6094 13.9842 10.6526 13.9656 10.6973C13.947 10.7427 13.9328 10.7896 13.9231 10.8365C13.9134 10.8849 13.9082 10.9341 13.9082 10.9825C13.9082 11.0309 13.9134 11.08 13.9231 11.1277C13.9328 11.1753 13.947 11.2222 13.9656 11.2669C13.9842 11.3122 14.0073 11.3554 14.0341 11.3957C14.0608 11.4367 14.0922 11.4747 14.1264 11.509C14.1607 11.5432 14.1987 11.5745 14.2396 11.6013C14.2798 11.6281 14.323 11.6512 14.3685 11.6698C14.4132 11.6884 14.46 11.7025 14.5076 11.7122C14.5554 11.7219 14.6045 11.7271 14.6528 11.7271C14.702 11.7271 14.7505 11.7219 14.7988 11.7122C14.8457 11.7025 14.8927 11.6884 14.938 11.6698C14.9828 11.6512 15.0259 11.6281 15.0661 11.6013C15.1072 11.5745 15.1452 11.5432 15.1794 11.509C15.2137 11.4747 15.245 11.4367 15.2725 11.3957C15.2993 11.3555 15.3224 11.3123 15.341 11.2669C15.3596 11.2221 15.3738 11.1753 15.3835 11.1277C15.3932 11.08 15.3975 11.0309 15.3975 10.9825C15.3975 10.9341 15.3931 10.8849 15.3835 10.8365Z" fill="white"/>
<path d="M23.94 10.325C23.5769 10.1315 23.126 10.2696 22.9329 10.6327L21.2593 13.7788C21.0661 14.1419 21.2039 14.5928 21.567 14.7859C21.6784 14.8453 21.7981 14.8734 21.9161 14.8734C22.1825 14.8734 22.4402 14.7299 22.5742 14.4782L24.2478 11.3321C24.4408 10.969 24.303 10.5182 23.94 10.325Z" fill="white"/>
<path d="M21.5806 15.9748C21.571 15.9272 21.5568 15.8804 21.5382 15.8348C21.5196 15.79 21.4964 15.747 21.4697 15.7067C21.4422 15.6657 21.4109 15.6277 21.3765 15.5934C21.2381 15.455 21.046 15.3752 20.8501 15.3752C20.6543 15.3752 20.4629 15.4549 20.3236 15.5934C20.2894 15.6277 20.258 15.6657 20.2312 15.7067C20.2045 15.7469 20.1813 15.79 20.1628 15.8348C20.1442 15.8802 20.1301 15.9272 20.1204 15.9748C20.1106 16.0225 20.1055 16.0716 20.1055 16.12C20.1055 16.1683 20.1106 16.2176 20.1204 16.2652C20.1301 16.3129 20.1441 16.3598 20.1628 16.4044C20.1813 16.4498 20.2045 16.493 20.2312 16.5333C20.258 16.5742 20.2894 16.6122 20.3236 16.6465C20.3579 16.6808 20.3959 16.7121 20.4369 16.7388C20.4771 16.7664 20.5202 16.7887 20.5657 16.8073C20.6104 16.8259 20.6573 16.8408 20.7049 16.8505C20.7526 16.8602 20.8017 16.8647 20.8501 16.8647C21.0467 16.8647 21.2381 16.785 21.3765 16.6464C21.4109 16.6121 21.4422 16.5741 21.4697 16.5332C21.4964 16.493 21.5196 16.4498 21.5382 16.4043C21.5568 16.3596 21.5709 16.3128 21.5806 16.2651C21.5903 16.2174 21.5947 16.1683 21.5947 16.12C21.5947 16.0716 21.5902 16.0223 21.5806 15.9748Z" fill="white"/>
</svg>
