<svg width="42" height="42" viewBox="0 0 42 42" fill="none" xmlns="http://www.w3.org/2000/svg">
<g clip-path="url(#clip0)">
<path d="M41.5748 21.9992L29.5995 14.8137L31.094 13.8634C31.346 13.7024 31.4983 13.4242 31.4983 13.1249C31.4983 12.8257 31.346 12.5474 31.094 12.3864L21.4691 6.26152C21.182 6.07949 20.8163 6.07949 20.5293 6.26152L10.9043 12.3865C10.6523 12.5475 10.5 12.8257 10.5 13.125C10.5 13.4242 10.6523 13.7025 10.9043 13.8635L12.3988 14.8155L0.425264 21.9992C0.162764 22.1567 1.38375e-05 22.4402 1.38375e-05 22.7464C-0.00170882 23.0527 0.157514 23.338 0.420014 23.4972L20.545 35.7472C20.685 35.8329 20.8425 35.8749 21 35.8749C21.1575 35.8749 21.315 35.8329 21.455 35.7472L41.58 23.4973C41.8425 23.3362 42 23.0527 42 22.7465C41.9983 22.4402 41.8373 22.1567 41.5748 21.9992ZM21 8.03774L28.9958 13.125L21 18.2122L13.0043 13.125L21 8.03774ZM14.049 15.8655L20.5292 19.9885C20.6727 20.0794 20.8373 20.125 21 20.125C21.1628 20.125 21.3272 20.0794 21.469 19.9885L27.9492 15.8637L29.1025 16.5567L21 21.714L12.8957 16.5568L14.049 15.8655ZM2.56726 22.7518L11.2193 17.563L19.3708 22.75L11.1528 27.979L2.56726 22.7518ZM21 33.9745L12.8188 28.9939L21 23.7877L29.1812 28.994L21 33.9745ZM30.8473 27.9808L22.6293 22.75L30.7808 17.563L39.4328 22.7536L30.8473 27.9808Z" fill="white"/>
</g>
<defs>
<clipPath id="clip0">
<rect width="42" height="42" fill="white"/>
</clipPath>
</defs>
</svg>
