<svg width="36" height="36" viewBox="0 0 36 36" fill="none" xmlns="http://www.w3.org/2000/svg">
<g clip-path="url(#clip0)">
<path d="M9.75 28.5H6.75C6.336 28.5 6 28.164 6 27.75C6 27.336 6.336 27 6.75 27H9.75C10.164 27 10.5 27.336 10.5 27.75C10.5 28.164 10.164 28.5 9.75 28.5Z" fill="white"/>
<path d="M34.1258 28.5H32.2508C31.8368 28.5 31.5008 28.164 31.5008 27.75C31.5008 27.336 31.8368 27 32.2508 27H33.5033L34.5143 21.612C34.5008 18.855 32.1458 16.5 29.2508 16.5H24.3263L21.9398 27H26.2508C26.6648 27 27.0008 27.336 27.0008 27.75C27.0008 28.164 26.6648 28.5 26.2508 28.5H21.0008C20.7728 28.5 20.5568 28.3965 20.4143 28.218C20.2718 28.041 20.2178 27.807 20.2688 27.585L22.9958 15.585C23.0738 15.2415 23.3768 15 23.7278 15H29.2508C32.9723 15 36.0008 18.0285 36.0008 21.75L34.8623 27.888C34.7963 28.2435 34.4873 28.5 34.1258 28.5Z" fill="white"/>
<path d="M29.25 31.5C27.183 31.5 25.5 29.8185 25.5 27.75C25.5 25.6815 27.183 24 29.25 24C31.317 24 33 25.6815 33 27.75C33 29.8185 31.317 31.5 29.25 31.5ZM29.25 25.5C28.0095 25.5 27 26.5095 27 27.75C27 28.9905 28.0095 30 29.25 30C30.4905 30 31.5 28.9905 31.5 27.75C31.5 26.5095 30.4905 25.5 29.25 25.5Z" fill="white"/>
<path d="M12.75 31.5C10.683 31.5 9 29.8185 9 27.75C9 25.6815 10.683 24 12.75 24C14.817 24 16.5 25.6815 16.5 27.75C16.5 29.8185 14.817 31.5 12.75 31.5ZM12.75 25.5C11.5095 25.5 10.5 26.5095 10.5 27.75C10.5 28.9905 11.5095 30 12.75 30C13.9905 30 15 28.9905 15 27.75C15 26.5095 13.9905 25.5 12.75 25.5Z" fill="white"/>
<path d="M9.75 15H3.75C3.336 15 3 14.664 3 14.25C3 13.836 3.336 13.5 3.75 13.5H9.75C10.164 13.5 10.5 13.836 10.5 14.25C10.5 14.664 10.164 15 9.75 15Z" fill="white"/>
<path d="M9.75 19.5H2.25C1.836 19.5 1.5 19.164 1.5 18.75C1.5 18.336 1.836 18 2.25 18H9.75C10.164 18 10.5 18.336 10.5 18.75C10.5 19.164 10.164 19.5 9.75 19.5Z" fill="white"/>
<path d="M9.75 24H0.75C0.336 24 0 23.664 0 23.25C0 22.836 0.336 22.5 0.75 22.5H9.75C10.164 22.5 10.5 22.836 10.5 23.25C10.5 23.664 10.164 24 9.75 24Z" fill="white"/>
<path d="M21 28.5H15.75C15.336 28.5 15 28.164 15 27.75C15 27.336 15.336 27 15.75 27H20.4015L23.8095 12H6.75C6.336 12 6 11.664 6 11.25C6 10.836 6.336 10.5 6.75 10.5H24.75C24.978 10.5 25.194 10.6035 25.3365 10.782C25.479 10.959 25.533 11.193 25.482 11.415L21.732 27.915C21.654 28.2585 21.3495 28.5 21 28.5Z" fill="white"/>
</g>
<defs>
<clipPath id="clip0">
<rect width="36" height="36" fill="white"/>
</clipPath>
</defs>
</svg>
