<svg width="35" height="35" viewBox="0 0 35 35" fill="none" xmlns="http://www.w3.org/2000/svg">
<path d="M9.35982 0H1.2679C0.731687 0 0.292969 0.438718 0.292969 0.97493V9.06685C0.292969 9.60306 0.731687 10.0418 1.2679 10.0418H9.35982C9.89603 10.0418 10.3348 9.60306 10.3348 9.06685V0.97493C10.3348 0.438718 9.89603 0 9.35982 0ZM8.48238 8.18941H2.24283V1.94986H8.48238V8.18941Z" fill="white"/>
<path d="M21.5454 0H13.4534C12.9172 0 12.4785 0.438718 12.4785 0.97493V9.06685C12.4785 9.60306 12.9172 10.0418 13.4534 10.0418H21.5454C22.0816 10.0418 22.5203 9.60306 22.5203 9.06685V0.97493C22.5203 0.438718 22.0816 0 21.5454 0ZM20.6679 8.18941H14.4284V1.94986H20.6679V8.18941Z" fill="white"/>
<path d="M9.35982 12.2841H1.2679C0.731687 12.2841 0.292969 12.7228 0.292969 13.2591V21.351C0.292969 21.8872 0.731687 22.3259 1.2679 22.3259H9.35982C9.89603 22.3259 10.3348 21.8872 10.3348 21.351V13.2591C10.3348 12.7228 9.89603 12.2841 9.35982 12.2841ZM8.48238 20.376H2.24283V14.234H8.48238V20.376Z" fill="white"/>
<path d="M21.5454 12.2841H13.4534C12.9172 12.2841 12.4785 12.7228 12.4785 13.2591V21.351C12.4785 21.8872 12.9172 22.3259 13.4534 22.3259H21.5454C22.0816 22.3259 22.5203 21.8872 22.5203 21.351V13.2591C22.5203 12.7228 22.0816 12.2841 21.5454 12.2841ZM20.6679 20.376H14.4284V14.234H20.6679V20.376Z" fill="white"/>
<path d="M33.7329 0H25.6409C25.1047 0 24.666 0.438718 24.666 0.97493V9.06685C24.666 9.60306 25.1047 10.0418 25.6409 10.0418H33.7329C34.2691 10.0418 34.7078 9.60306 34.7078 9.06685V0.97493C34.7078 0.438718 34.2691 0 33.7329 0ZM32.8554 8.18941H26.6159V1.94986H32.8554V8.18941Z" fill="white"/>
<path d="M33.7329 12.2841H25.6409C25.1047 12.2841 24.666 12.7228 24.666 13.2591V21.351C24.666 21.8872 25.1047 22.3259 25.6409 22.3259H33.7329C34.2691 22.3259 34.7078 21.8872 34.7078 21.351V13.2591C34.7078 12.7228 34.2691 12.2841 33.7329 12.2841ZM32.8554 20.376H26.6159V14.234H32.8554V20.376Z" fill="white"/>
<path d="M9.35982 24.9582H1.2679C0.731687 24.9582 0.292969 25.3969 0.292969 25.9331V34.0251C0.292969 34.5613 0.731687 35 1.2679 35H9.35982C9.89603 35 10.3348 34.5613 10.3348 34.0251V25.9331C10.3348 25.3969 9.89603 24.9582 9.35982 24.9582ZM8.48238 33.1476H2.24283V26.9081H8.48238V33.1476Z" fill="white"/>
<path d="M21.5454 24.9582H13.4534C12.9172 24.9582 12.4785 25.3969 12.4785 25.9331V34.0251C12.4785 34.5613 12.9172 35 13.4534 35H21.5454C22.0816 35 22.5203 34.5613 22.5203 34.0251V25.9331C22.5203 25.3969 22.0816 24.9582 21.5454 24.9582ZM20.6679 33.1476H14.4284V26.9081H20.6679V33.1476Z" fill="white"/>
<path d="M33.7329 24.9582H25.6409C25.1047 24.9582 24.666 25.3969 24.666 25.9331V34.0251C24.666 34.5613 25.1047 35 25.6409 35H33.7329C34.2691 35 34.7078 34.5613 34.7078 34.0251V25.9331C34.7078 25.3969 34.2691 24.9582 33.7329 24.9582ZM32.8554 33.1476H26.6159V26.9081H32.8554V33.1476Z" fill="white"/>
</svg>
