<svg width="32" height="29" viewBox="0 0 32 29" fill="none" xmlns="http://www.w3.org/2000/svg">
<path d="M31.7036 25.6382L17.8936 1.12108C17.0519 -0.373406 14.9485 -0.373983 14.1064 1.12108L0.296442 25.6382C-0.54512 27.1321 0.50538 29 2.19007 29H29.8099C31.4929 29 32.5459 27.1336 31.7036 25.6382ZM29.8099 27.0789H2.19007C1.94982 27.0789 1.79838 26.8138 1.91957 26.5987L15.7295 2.08162C15.8497 1.8683 16.1494 1.8665 16.2706 2.08162L30.0805 26.5987C30.2009 26.8125 30.0518 27.0789 29.8099 27.0789Z" fill="white"/>
<path d="M16.6084 24.3122C17.1411 23.9746 17.306 23.2583 16.9768 22.7122C16.6475 22.1661 15.9487 21.9971 15.416 22.3346C14.8833 22.6722 14.7183 23.3885 15.0476 23.9346C15.3769 24.4807 16.0757 24.6497 16.6084 24.3122Z" fill="white"/>
<path d="M16.0122 20.4723C16.5298 20.4723 16.9493 20.0423 16.9493 19.5118V8.53279C16.9493 8.0023 16.5298 7.57227 16.0122 7.57227C15.4946 7.57227 15.0751 8.0023 15.0751 8.53279V19.5118C15.0751 20.0423 15.4946 20.4723 16.0122 20.4723Z" fill="white"/>
</svg>
