<svg width="59" height="59" viewBox="0 0 59 59" fill="none" xmlns="http://www.w3.org/2000/svg">
<g clip-path="url(#clip0)">
<path d="M10.7773 58.4239C10.7773 58.742 11.0355 59 11.3534 59H21.7554C22.0734 59 22.3314 58.7419 22.3314 58.4239C22.3314 55.7451 22.3314 54.1539 22.3326 53.1238H10.7773V58.4239Z" fill="#393C4B"/>
<path d="M10.7765 49.6673H22.3319V43.7911H10.7754C10.7754 46.3271 10.7754 48.2177 10.7765 49.6673Z" fill="#393C4B"/>
<path d="M22.3303 32.7888C22.2185 29.6676 19.6848 27.226 16.5544 27.226C13.4481 27.226 10.9178 29.6479 10.7831 32.745C10.7795 33.485 10.7773 39.6932 10.7773 40.3264H22.3304C22.3312 39.8376 22.3325 33.1403 22.3303 32.7888Z" fill="#393C4B"/>
<path d="M31.8182 14.0196L18.9978 1.02294C17.6528 -0.341094 15.4561 -0.340863 14.1113 1.02294C14.1113 1.02294 14.1113 1.02294 14.1101 1.02294L1.29102 14.0196H31.8182Z" fill="#393C4B"/>
<path d="M56.1156 47.8549H51.8075L43.2825 24.5507C42.8676 23.4192 41.7812 22.6599 40.5771 22.6599H33.1041V17.4762C31.7817 17.4762 1.8525 17.4762 0.00390625 17.4762C0.00390625 18.5362 0.00402148 56.2681 0.00402148 57.2717C0.00402148 58.2262 0.77782 59 1.73231 59C2.68679 59 3.46059 58.2262 3.46059 57.2717V40.3265H7.32037C7.32037 40.1834 7.32152 32.7783 7.32843 32.6322C7.52549 27.6616 11.5777 23.7695 16.554 23.7695C18.9666 23.7695 21.2492 24.6936 22.982 26.3723C24.7114 28.0487 25.7069 30.2931 25.7853 32.6955C25.7903 32.7724 25.7871 39.9592 25.7864 40.3265H29.6474V57.264C29.6474 58.2185 30.4212 58.9923 31.3757 58.9923C32.3301 58.9923 33.1039 58.2185 33.1039 57.264V38.5998C33.1039 38.5992 33.1041 38.5987 33.1041 38.5981V33.1829H35.4787L44.013 57.0804C44.422 58.2234 45.5119 58.9919 46.7264 58.9919H56.1156C57.7044 58.9919 58.9961 57.7003 58.9961 56.1114V50.7354C58.9961 49.1464 57.7044 47.8549 56.1156 47.8549Z" fill="#393C4B"/>
</g>
<defs>
<clipPath id="clip0">
<rect width="59" height="59" fill="white"/>
</clipPath>
</defs>
</svg>
