<svg width="42" height="55" viewBox="0 0 42 55" fill="none" xmlns="http://www.w3.org/2000/svg">
<g clip-path="url(#clip0)">
<path d="M17.0285 24.6667H22.923C23.1305 24.6667 23.3258 24.7668 23.4493 24.9365L36.3518 42.6667H41.3451C41.7068 42.6667 42 42.9651 42 43.3333C42 43.7015 41.7068 44 41.3451 44H36.0219C35.8143 44 35.6191 43.8999 35.4956 43.7301L22.5931 26H17.0285V43.3333C17.0285 43.7015 16.7353 44 16.3736 44C16.0119 44 15.7186 43.7015 15.7186 43.3333V39.3333H1.30989V43.3333C1.30989 43.7015 1.01666 44 0.654943 44C0.293228 44 0 43.7015 0 43.3333V8.66666C0 8.48985 0.069002 8.32029 0.191828 8.19526L8.05114 0.195262C8.30692 -0.0650873 8.7216 -0.0650873 8.97738 0.195262L16.8367 8.19526C16.9595 8.32029 17.0285 8.48985 17.0285 8.66666V24.6667ZM15.7186 24.6667V8.94278L8.51426 1.60945L1.30989 8.94278V24.6667H15.7186ZM1.30989 26V31.3333H15.7186V26H1.30989ZM1.30989 38H15.7186V32.6667H1.30989V38ZM8.51426 18C6.34397 18 4.5846 16.2091 4.5846 14C4.5846 11.7909 6.34397 9.99999 8.51426 9.99999C10.6845 9.99999 12.4439 11.7909 12.4439 14C12.4439 16.2091 10.6845 18 8.51426 18ZM8.51426 16.6667C9.96112 16.6667 11.134 15.4727 11.134 14C11.134 12.5272 9.96112 11.3333 8.51426 11.3333C7.0674 11.3333 5.89448 12.5272 5.89448 14C5.89448 15.4727 7.0674 16.6667 8.51426 16.6667ZM25.5428 43.3333C25.5428 43.7015 25.2495 44 24.8878 44C24.5261 44 24.2329 43.7015 24.2329 43.3333V34C24.2329 33.6318 24.5261 33.3333 24.8878 33.3333C25.2495 33.3333 25.5428 33.6318 25.5428 34V43.3333Z" fill="white"/>
</g>
<defs>
<clipPath id="clip0">
<rect width="42" height="55" fill="white"/>
</clipPath>
</defs>
</svg>
