<svg width="30" height="30" viewBox="0 0 30 30" fill="none" xmlns="http://www.w3.org/2000/svg">
<path d="M29.5333 4.73333C29.791 4.73333 30 4.52438 30 4.26667V1.46667C30 1.20895 29.791 1 29.5333 1H2.46667C2.20895 1 2 1.20895 2 1.46667V4.26667C2 4.52438 2.20895 4.73333 2.46667 4.73333H3.4V28.0667H2.46667C2.20895 28.0667 2 28.2756 2 28.5333C2 28.791 2.20895 29 2.46667 29H29.5333C29.791 29 30 28.791 30 28.5333C30 28.2756 29.791 28.0667 29.5333 28.0667H28.6V4.73333H29.5333ZM25.8 28.0667H6.2V25.2667H25.8V28.0667ZM25.8 24.3333H6.2V21.5333H25.8V24.3333ZM25.8 20.6H6.2V17.8H25.8V20.6ZM25.8 16.8667H6.2V14.0667H25.8V16.8667ZM25.8 13.1333H6.2V10.3333H25.8V13.1333ZM25.8 9.4H6.2V6.6H25.8V9.4ZM27.6667 28.0667H26.7333V6.13333C26.7333 5.87562 26.5244 5.66667 26.2667 5.66667H5.73333C5.47562 5.66667 5.26667 5.87562 5.26667 6.13333V28.0667H4.33333V4.73333H27.6667V28.0667ZM2.93333 3.8V1.93333H29.0667V3.8H2.93333Z" fill="white"/>
<path d="M14.5995 27.6H17.3995C17.6572 27.6 17.8661 27.391 17.8661 27.1333C17.8661 26.8756 17.6572 26.6666 17.3995 26.6666H14.5995C14.3418 26.6666 14.1328 26.8756 14.1328 27.1333C14.1328 27.391 14.3418 27.6 14.5995 27.6Z" fill="white"/>
</svg>
