<svg width="59" height="59" viewBox="0 0 59 59" fill="none" xmlns="http://www.w3.org/2000/svg">
<path d="M19.1346 20.9298H0V31.8243H26.4419L19.1346 20.9298Z" fill="#393C4B"/>
<path d="M21.1068 38.5775C27.6586 38.5775 32.989 43.9078 32.989 50.4596C32.989 50.9267 32.9613 51.3875 32.9086 51.8406H40.8811V45.226H35.5422V41.769H40.8811V40.1212C40.8811 37.4482 38.7143 35.2813 36.0413 35.2813H0V51.8407H9.30495C9.25228 51.3875 9.22463 50.9268 9.22463 50.4598C9.22463 43.9079 14.5549 38.5775 21.1068 38.5775Z" fill="#393C4B"/>
<path d="M50.28 25.8665H46.823V55.543H31.8432H27.9648C29.0211 54.1217 29.6472 52.3625 29.6472 50.4596C29.6472 45.7505 25.816 41.9193 21.1068 41.9193C16.3976 41.9193 12.5664 45.7505 12.5664 50.4596C12.5664 52.3625 13.1925 54.1217 14.2487 55.543H10.3704H0V59H59V55.543H50.28V25.8665Z" fill="#393C4B"/>
<path d="M48.7667 7.22253H47.209V10.4317C47.7948 10.4288 48.3951 10.4265 48.7667 10.4265C49.6705 10.4265 50.4339 9.69293 50.4339 8.82464C50.4339 7.95612 49.6705 7.22253 48.7667 7.22253Z" fill="#393C4B"/>
<path d="M36.4746 0V22.5247H58.9994V0H36.4746ZM48.7664 13.8834C48.4011 13.8834 47.7975 13.8859 47.2087 13.8887V18.5527H43.7517V3.76551H48.7664C51.592 3.76551 53.8907 6.03494 53.8907 8.82453C53.8907 11.6141 51.592 13.8834 48.7664 13.8834Z" fill="#393C4B"/>
</svg>
