<svg width="53" height="53" viewBox="0 0 53 53" fill="none" xmlns="http://www.w3.org/2000/svg">
<g clip-path="url(#clip0)">
<path d="M50.7537 19.2246H39.7583L33.5905 5.10164C33.2473 4.31585 32.332 3.95675 31.5461 4.30011C30.7602 4.64327 30.4014 5.55866 30.7446 6.34455L36.3696 19.2247H16.6305L22.2555 6.34455C22.5987 5.55866 22.2399 4.64337 21.454 4.30011C20.6682 3.95675 19.7527 4.31564 19.4096 5.10164L13.2418 19.2246H2.24645C0.808096 19.2246 -0.259357 20.5267 0.0553301 21.8974L5.84548 47.1169C6.07539 48.1183 6.9857 48.83 8.03659 48.83H44.9635C46.0144 48.83 46.9247 48.1183 47.1546 47.1169L52.9448 21.8974C53.2595 20.5268 52.1919 19.2246 50.7537 19.2246ZM13.5339 23.9867C13.3264 23.9867 13.1156 23.9449 12.9132 23.8565C12.1273 23.5133 11.7684 22.5981 12.1117 21.8121L13.2781 19.1411H16.6668L14.9575 23.0549C14.7028 23.6386 14.1324 23.9867 13.5339 23.9867ZM18.7364 40.5488C18.7364 41.4063 18.0412 42.1015 17.1836 42.1015C16.3261 42.1015 15.6309 41.4063 15.6309 40.5488V29.1621C15.6309 28.3046 16.3261 27.6093 17.1836 27.6093C18.0412 27.6093 18.7364 28.3046 18.7364 29.1621V40.5488ZM28.0528 40.5488C28.0528 41.4063 27.3576 42.1015 26.5001 42.1015C25.6425 42.1015 24.9473 41.4063 24.9473 40.5488V29.1621C24.9473 28.3046 25.6425 27.6093 26.5001 27.6093C27.3576 27.6093 28.0528 28.3046 28.0528 29.1621V40.5488ZM37.3692 40.5488C37.3692 41.4063 36.674 42.1015 35.8165 42.1015C34.9589 42.1015 34.2637 41.4063 34.2637 40.5488V29.1621C34.2637 28.3046 34.9589 27.6093 35.8165 27.6093C36.674 27.6093 37.3692 28.3046 37.3692 29.1621V40.5488ZM40.0868 23.8565C39.8845 23.9449 39.6737 23.9867 39.4662 23.9867C38.8677 23.9867 38.2973 23.6387 38.0425 23.055L36.3332 19.1413H39.7219L40.8883 21.8122C41.2316 22.5981 40.8727 23.5133 40.0868 23.8565Z" fill="#393C4B"/>
</g>
<defs>
<clipPath id="clip0">
<rect width="53" height="53" fill="white"/>
</clipPath>
</defs>
</svg>
