<svg width="40" height="40" viewBox="0 0 40 40" fill="none" xmlns="http://www.w3.org/2000/svg">
<path d="M37.4173 7.09843V3.87009H32.2598V7.09843H7.74016V3.87009H2.58268V7.09843H0V18.7126H2.58268V36.1299H7.74016V25.1614H32.2598V36.1299H37.4173V18.7126H40V7.09843H37.4173ZM33.5512 5.16143H36.1339V7.09843H33.5512V5.16143ZM37.7638 8.38977L28.4173 17.4213H20.9291L30.2756 8.38977H37.7638ZM28.4173 8.38977L19.0709 17.4213H11.5827L20.9291 8.38977H28.4173ZM3.87402 5.16143H6.45669V7.09843H3.87402V5.16143ZM1.29134 8.38977H9.72441L1.29134 16.5473V8.38977ZM6.45669 34.8386H3.87402V18.7126H6.45669V34.8386ZM2.24409 17.4213L11.5906 8.38977H19.0787L9.72441 17.4213H2.24409ZM32.2598 23.878H7.74016V18.7205H32.2598V23.878ZM36.126 34.8465H33.5433V18.7126H36.126V34.8465ZM38.7165 17.4213H30.2756L38.7165 9.26379V17.4213Z" fill="white"/>
</svg>
