<svg width="36" height="36" viewBox="0 0 36 36" fill="none" xmlns="http://www.w3.org/2000/svg">
<path d="M28.0066 7.73633L22.4229 16.5453V27.191H18.6245V22.6727H14.6866L6.5168 0L1.85884 1.45469L2.09394 2.12327V12.1739C0.933122 12.5633 6.10352e-05 13.7094 6.10352e-05 15.0906C6.10352e-05 16.6996 1.32251 18.0808 2.87271 18.0808C4.42292 18.0808 5.74537 16.6996 5.74537 15.0906H4.18782C4.18782 15.9355 3.57067 16.6261 2.86537 16.6261C2.16741 16.6261 1.54292 15.9355 1.54292 15.0906C1.54292 14.2457 2.08659 13.5551 2.86537 13.5551H3.64414V6.5902L9.54373 23.5616V27.1837H4.73149V36H36.0001V7.73633H28.0066ZM17.1478 24.1273V27.191H11.0939V24.1273H17.1478ZM5.58373 1.83673L13.0335 22.6727H10.7854L3.80578 2.45388L5.58373 1.83673ZM34.5233 34.4645H6.28169V28.7265H34.5233V34.4645ZM23.8997 16.9273L28.8662 9.19102H34.4499V26.809H23.8997V16.9273Z" fill="#FFFBFB"/>
<path d="M26.3021 15.0906V17.6914H33.2817V10.418H29.4025L26.3021 15.0906ZM31.8123 11.8727V16.1633H27.8523V15.5535L30.2548 11.88H31.8123V11.8727Z" fill="#FFFBFB"/>
</svg>
