<svg width="39" height="39" viewBox="0 0 39 39" fill="none" xmlns="http://www.w3.org/2000/svg">
<path d="M33.5156 14.3203H32.9062V9.44531C32.9043 7.76344 31.5413 6.40042 29.8594 6.39844H9.14062C7.45875 6.40042 6.09573 7.76344 6.09375 9.44531V14.3203H5.48438C2.457 14.324 0.00365625 16.7773 0 19.8047V28.3359H1.21875V32.6016H4.26562V28.3359H34.7344V32.6016H37.7812V28.3359H39V19.8047C38.9963 16.7773 36.543 14.324 33.5156 14.3203ZM7.3125 9.44531C7.3125 8.43565 8.13097 7.61719 9.14062 7.61719H29.8594C30.869 7.61719 31.6875 8.43565 31.6875 9.44531V14.3203H29.8594V11.8828C29.8594 10.8732 29.0409 10.0547 28.0312 10.0547H22.5469C21.5372 10.0547 20.7188 10.8732 20.7188 11.8828V14.3203H18.2812V11.8828C18.2812 10.8732 17.4628 10.0547 16.4531 10.0547H10.9688C9.95909 10.0547 9.14062 10.8732 9.14062 11.8828V14.3203H7.3125V9.44531ZM28.6406 11.8828V14.3203H21.9375V11.8828C21.9375 11.5463 22.2103 11.2734 22.5469 11.2734H28.0312C28.3678 11.2734 28.6406 11.5463 28.6406 11.8828ZM17.0625 11.8828V14.3203H10.3594V11.8828C10.3594 11.5463 10.6322 11.2734 10.9688 11.2734H16.4531C16.7897 11.2734 17.0625 11.5463 17.0625 11.8828ZM3.04688 31.3828H2.4375V28.3359H3.04688V31.3828ZM36.5625 31.3828H35.9531V28.3359H36.5625V31.3828ZM37.7812 27.1172H1.21875V24.0703H37.7812V27.1172ZM37.7812 22.8516H1.21875V19.8047C1.22142 17.45 3.12967 15.5417 5.48438 15.5391H33.5156C35.8703 15.5417 37.7786 17.45 37.7812 19.8047V22.8516Z" fill="white"/>
</svg>
