<svg width="38" height="38" viewBox="0 0 38 38" fill="none" xmlns="http://www.w3.org/2000/svg">
<path d="M22.5625 16.0312H23.1562V22.5625C23.1562 24.1995 24.488 25.5312 26.125 25.5312H32.0625C33.6995 25.5312 35.0312 24.1995 35.0312 22.5625V16.0312H35.625C36.6071 16.0312 37.4062 15.2321 37.4062 14.25C37.4062 13.2679 36.6071 12.4688 35.625 12.4688H35.0312V9.99222C35.0312 8.75069 34.5479 7.58338 33.6698 6.70522C32.7916 5.82706 31.6249 5.34375 30.3828 5.34375H27.8041C26.5626 5.34375 25.3953 5.82706 24.5171 6.70522C23.639 7.58338 23.1562 8.75009 23.1562 9.99222V12.4688H22.5625C21.5804 12.4688 20.7812 13.2679 20.7812 14.25C20.7812 15.2321 21.5804 16.0312 22.5625 16.0312ZM24.3823 9.5H25.5312C26.8411 9.5 27.9062 8.43481 27.9062 7.125V6.53125H30.2812V7.125C30.2812 8.43481 31.3464 9.5 32.6562 9.5H33.8052C33.8283 9.66209 33.8438 9.82538 33.8438 9.99222V13.5903C32.7554 12.8606 31.4765 12.4688 30.137 12.4688H28.0499C26.7104 12.4688 25.4315 12.8606 24.3432 13.5903V9.99222C24.3438 9.82538 24.3592 9.66209 24.3823 9.5ZM24.3438 15.1056C25.3585 14.1728 26.6635 13.6562 28.0505 13.6562H30.1376C31.5246 13.6562 32.8296 14.1728 33.8443 15.1056V19.9251C32.829 20.8584 31.524 21.375 30.137 21.375H28.0499C26.6629 21.375 25.3579 20.8584 24.3432 19.9257V15.1056H24.3438ZM32.0625 24.3438H26.125C25.1429 24.3438 24.3438 23.5446 24.3438 22.5625V21.4409C25.4321 22.17 26.711 22.5625 28.0505 22.5625H30.1376C31.4771 22.5625 32.756 22.17 33.8443 21.4409V22.5625C33.8438 23.5446 33.0446 24.3438 32.0625 24.3438ZM35.625 13.6562C35.9522 13.6562 36.2188 13.9228 36.2188 14.25C36.2188 14.5772 35.9522 14.8438 35.625 14.8438H35.0312V13.6562H35.625ZM33.4079 8.3125H32.6562C32.0013 8.3125 31.4688 7.77991 31.4688 7.125V6.70759C31.9758 6.87444 32.4413 7.15647 32.8302 7.54478C33.0612 7.77575 33.253 8.03463 33.4079 8.3125ZM26.7188 6.70759V7.125C26.7188 7.77991 26.1862 8.3125 25.5312 8.3125H24.7796C24.9345 8.03463 25.1263 7.77575 25.3573 7.54478C25.7462 7.15647 26.2117 6.87444 26.7188 6.70759ZM22.5625 13.6562H23.1562V14.8438H22.5625C22.2353 14.8438 21.9688 14.5772 21.9688 14.25C21.9688 13.9228 22.2353 13.6562 22.5625 13.6562Z" fill="white"/>
<path d="M2.375 16.0312H2.96875V22.5625C2.96875 24.1995 4.30053 25.5312 5.9375 25.5312H11.875C13.512 25.5312 14.8438 24.1995 14.8438 22.5625V16.0312H15.4375C16.4196 16.0312 17.2188 15.2321 17.2188 14.25C17.2188 13.2679 16.4196 12.4688 15.4375 12.4688H14.8438V9.99222C14.8438 8.75069 14.3604 7.58338 13.4823 6.70522C12.6041 5.82706 11.4374 5.34375 10.1953 5.34375H7.61662C6.37509 5.34375 5.20778 5.82706 4.32962 6.70522C3.45147 7.58338 2.96875 8.75009 2.96875 9.99222V12.4688H2.375C1.39294 12.4688 0.59375 13.2679 0.59375 14.25C0.59375 15.2321 1.39294 16.0312 2.375 16.0312ZM4.19484 9.5H5.34375C6.65356 9.5 7.71875 8.43481 7.71875 7.125V6.53125H10.0938V7.125C10.0938 8.43481 11.1589 9.5 12.4688 9.5H13.6177C13.6408 9.66209 13.6562 9.82538 13.6562 9.99222V13.5903C12.5679 12.8606 11.289 12.4688 9.94947 12.4688H7.86244C6.52294 12.4688 5.244 12.8606 4.15566 13.5903V9.99222C4.15625 9.82538 4.17169 9.66209 4.19484 9.5ZM4.15625 15.1056C5.17097 14.1728 6.47603 13.6562 7.86303 13.6562H9.95006C11.3371 13.6562 12.6421 14.1728 13.6568 15.1056V19.9251C12.6415 20.8584 11.3365 21.375 9.94947 21.375H7.86244C6.47603 21.375 5.17097 20.8584 4.15625 19.9257V15.1056ZM11.875 24.3438H5.9375C4.95544 24.3438 4.15625 23.5446 4.15625 22.5625V21.4409C5.24459 22.17 6.52353 22.5625 7.86303 22.5625H9.95006C11.2896 22.5625 12.5685 22.17 13.6568 21.4409V22.5625C13.6562 23.5446 12.8571 24.3438 11.875 24.3438ZM15.4375 13.6562C15.7647 13.6562 16.0312 13.9228 16.0312 14.25C16.0312 14.5772 15.7647 14.8438 15.4375 14.8438H14.8438V13.6562H15.4375ZM13.2204 8.3125H12.4688C11.8138 8.3125 11.2812 7.77991 11.2812 7.125V6.70759C11.7883 6.87444 12.2538 7.15647 12.6427 7.54478C12.8737 7.77575 13.0655 8.03463 13.2204 8.3125ZM6.53125 6.70759V7.125C6.53125 7.77991 5.99866 8.3125 5.34375 8.3125H4.59206C4.74703 8.03463 4.93881 7.77575 5.16978 7.54478C5.55869 7.15647 6.02419 6.87444 6.53125 6.70759ZM2.375 13.6562H2.96875V14.8438H2.375C2.04784 14.8438 1.78125 14.5772 1.78125 14.25C1.78125 13.9228 2.04784 13.6562 2.375 13.6562Z" fill="white"/>
<path d="M2.375 4.15625H15.4375C15.7653 4.15625 16.0312 3.89025 16.0312 3.5625V1.1875C16.0312 0.85975 15.7653 0.59375 15.4375 0.59375H2.375C2.04725 0.59375 1.78125 0.85975 1.78125 1.1875V3.5625C1.78125 3.89025 2.04725 4.15625 2.375 4.15625ZM2.96875 1.78125H14.8438V2.96875H2.96875V1.78125Z" fill="white"/>
<path d="M22.5625 4.15625H35.625C35.9528 4.15625 36.2188 3.89025 36.2188 3.5625V1.1875C36.2188 0.85975 35.9528 0.59375 35.625 0.59375H22.5625C22.2348 0.59375 21.9688 0.85975 21.9688 1.1875V3.5625C21.9688 3.89025 22.2348 4.15625 22.5625 4.15625ZM23.1562 1.78125H35.0312V2.96875H23.1562V1.78125Z" fill="white"/>
<path d="M0.59375 36.2188H37.4062V37.4062H0.59375V36.2188Z" fill="white"/>
<path d="M3.5625 31.4688H5.9375V32.6562H3.5625V31.4688Z" fill="white"/>
<path d="M8.3125 31.4688H10.6875V32.6562H8.3125V31.4688Z" fill="white"/>
<path d="M13.0625 31.4688H15.4375V32.6562H13.0625V31.4688Z" fill="white"/>
<path d="M17.8125 31.4688H20.1875V32.6562H17.8125V31.4688Z" fill="white"/>
<path d="M22.5625 31.4688H24.9375V32.6562H22.5625V31.4688Z" fill="white"/>
<path d="M27.3125 31.4688H29.6875V32.6562H27.3125V31.4688Z" fill="white"/>
<path d="M32.0625 31.4688H34.4375V32.6562H32.0625V31.4688Z" fill="white"/>
<path d="M19.5938 0.59375H18.4062V26.7188H0.59375V27.9062H37.4062V26.7188H19.5938V0.59375Z" fill="white"/>
</svg>
