<svg width="31" height="31" viewBox="0 0 31 31" fill="none" xmlns="http://www.w3.org/2000/svg">
<path d="M25.901 13.3641C26.194 12.6129 26.3516 11.6327 26.3516 10.324C26.3516 3.67193 22.4926 0 15.5016 0C8.51052 0 4.65156 3.67193 4.65156 10.324C4.65156 11.6327 4.80862 12.6129 5.10209 13.3641C3.8802 14.2094 3.10156 15.2747 3.10156 16.586C3.10156 18.2574 3.68384 18.8584 5.02871 18.9979C5.50612 25.7207 9.99906 31 15.5016 31C21.0041 31 25.497 25.7207 25.9744 18.9979C27.3188 18.8584 27.9016 18.2575 27.9016 16.586C27.9016 15.2742 27.1224 14.2094 25.901 13.3641ZM15.5016 1.55C21.6726 1.55 24.8016 4.50172 24.8016 10.324C24.8016 11.3326 24.7127 12.0466 24.5396 12.5855C22.0079 11.4018 18.4776 10.85 15.5016 10.85C12.5256 10.85 8.9952 11.4018 6.46349 12.5855C6.29039 12.0466 6.20156 11.3326 6.20156 10.324C6.20156 4.50172 9.3305 1.55 15.5016 1.55ZM15.5016 29.45C10.8557 29.45 7.04323 24.8625 6.58028 19.0107C8.55036 18.9059 11.4473 18.4982 15.5016 18.4982C19.5564 18.4982 22.4528 18.9053 24.4228 19.0107C23.9599 24.8625 20.1474 29.45 15.5016 29.45ZM26.2704 17.361C26.2337 17.3822 26.0152 17.4856 25.2376 17.4856C24.5381 17.4856 23.6406 17.407 22.5039 17.3079C20.6729 17.1477 18.3938 16.9488 15.5016 16.9488C12.6098 16.9488 10.3307 17.1482 8.49968 17.3079C7.36303 17.407 6.46506 17.4856 5.7655 17.4856C5.00292 17.4856 4.77817 17.3864 4.75855 17.3864C4.75697 17.3864 4.75697 17.3869 4.75752 17.388C4.75649 17.3864 4.65162 17.2134 4.65162 16.5861C4.65162 14.119 10.3696 12.4001 15.5016 12.4001C20.6337 12.4001 26.3516 14.119 26.3516 16.5861C26.3516 17.1621 26.2627 17.3549 26.2704 17.361Z" fill="white"/>
<path d="M18.6016 4.65002H12.4016C11.5454 4.65002 10.8516 5.34389 10.8516 6.20003V7.75003C10.8516 8.60616 11.5454 9.30003 12.4016 9.30003H18.6016C19.4577 9.30003 20.1516 8.60616 20.1516 7.75003V6.20003C20.1516 5.34389 19.4577 4.65002 18.6016 4.65002ZM18.6016 7.75003H12.4016V6.20003H18.6016V7.75003Z" fill="white"/>
</svg>
