<svg width="34" height="34" viewBox="0 0 34 34" fill="none" xmlns="http://www.w3.org/2000/svg">
<path d="M32.4161 0H1.54368C0.720414 0 0 0.720345 0 1.59506V24.0805C0 24.9552 0.720345 25.6241 1.54361 25.6241H21.5078L20.6845 33.3937C20.6845 33.6509 20.7874 33.8567 21.0447 33.9596C21.302 34.0625 21.5078 33.9596 21.6622 33.7538L24.9037 28.5055L28.1453 33.7538C28.2483 33.9596 28.5055 34.0625 28.7628 33.9596C28.9686 33.8567 29.123 33.6509 29.123 33.4451L28.2997 25.6241H32.416C33.2907 25.6241 33.9596 24.9037 33.9596 24.0805V1.59506C33.9598 0.720345 33.2393 0 32.4161 0ZM25.3154 27.2192C25.2125 27.0649 25.0581 26.9619 24.8524 26.9619C24.6466 26.9619 24.4921 27.0649 24.3893 27.2192L21.9195 31.2326L22.6399 25.1096L22.7942 23.4116L23.669 23.0514L24.5437 23.9261C24.6466 24.029 24.801 24.0805 24.9039 24.0805C25.0068 24.0805 25.1612 24.029 25.2641 23.9261L26.1388 23.0514L27.0135 23.4116L27.8368 31.2326L25.3154 27.2192ZM20.3244 19.5526L19.3467 19.141L19.7584 18.1633C19.8613 17.9575 19.8099 17.7518 19.6555 17.5974L18.8837 16.8256L19.6555 16.0538C19.8099 15.8994 19.8613 15.6936 19.7584 15.4878L19.3467 14.5102L20.3244 14.0986C20.5302 13.9957 20.6331 13.8413 20.6331 13.6355V12.555H21.6622C21.8681 12.555 22.0738 12.452 22.1253 12.2462L22.5369 11.2686L23.5145 11.6802C23.7203 11.7832 23.9261 11.7317 24.0805 11.5773L24.8523 10.8055L25.6241 11.5773C25.7785 11.7317 25.9843 11.7832 26.1901 11.6802L27.1677 11.2686L27.5794 12.2462C27.6823 12.452 27.8367 12.555 28.0424 12.555H29.123V13.5841C29.123 13.7899 29.2259 13.9957 29.4317 14.0471L30.4094 14.4588L29.9978 15.4364C29.8948 15.6422 29.9463 15.8481 30.1007 16.0024L30.8725 16.7742L30.1007 17.546C29.9463 17.7004 29.8948 17.9062 29.9978 18.112L30.4094 19.0896L29.4832 19.5527C29.2773 19.6556 29.1744 19.8099 29.1744 20.0157V21.0963H28.1453C27.9395 21.0963 27.7337 21.1992 27.6823 21.405L27.2707 22.3826L26.2416 21.971C26.0358 21.8681 25.8299 21.9195 25.6756 22.0739L24.9038 22.8457L24.132 22.1254C24.0291 22.0224 23.9262 21.971 23.7718 21.971C23.7203 21.971 23.6174 21.971 23.566 22.0224L22.5883 22.4341L22.1767 21.4565C22.1253 21.1992 21.9194 21.0963 21.7137 21.0963H20.6331V20.0672C20.6331 19.8098 20.5302 19.6555 20.3244 19.5526ZM32.9307 24.0805C32.9307 24.3892 32.6734 24.595 32.4161 24.595H28.1969L28.0426 23.1543L28.4542 22.1252H29.6891C29.9979 22.1252 30.2037 21.9194 30.2037 21.6107V20.3758L31.3357 19.9127C31.4386 19.8613 31.5415 19.7583 31.593 19.6554C31.6444 19.5525 31.6444 19.3981 31.593 19.2438L31.1299 18.1118L32.0046 17.2371C32.1075 17.1342 32.159 17.0313 32.159 16.8769C32.159 16.7225 32.1075 16.6196 32.0046 16.5167L31.1299 15.642L31.593 14.51C31.6444 14.407 31.6444 14.2527 31.593 14.0984C31.5415 13.944 31.4386 13.8925 31.3357 13.8411L30.2037 13.378V12.1431C30.2037 11.8343 29.9978 11.6286 29.6891 11.6286H28.4542L27.9912 10.4966C27.8882 10.2393 27.5796 10.0849 27.3223 10.2393L26.1903 10.7023L25.2641 9.77616C25.0583 9.57032 24.7496 9.57032 24.5437 9.77616L23.669 10.6509L22.537 10.1878C22.2797 10.0849 21.971 10.1878 21.8681 10.4451L21.4051 11.5771H20.1701C19.8614 11.5771 19.6556 11.783 19.6556 12.0916V13.3266L18.5236 13.7896C18.4207 13.8411 18.3178 13.944 18.2663 14.0469C18.2149 14.1498 18.2149 14.3042 18.2663 14.4586L18.7294 15.5906L17.8547 16.4653C17.7517 16.5682 17.7003 16.6711 17.7003 16.8255C17.7003 16.9799 17.7517 17.0828 17.8547 17.1857L18.7294 18.0604L18.2663 19.1924C18.2149 19.2954 18.2149 19.4497 18.2663 19.6041C18.3178 19.7585 18.4207 19.8099 18.5236 19.8614L19.6556 20.3245V21.6108C19.6556 21.9195 19.8615 22.1253 20.1701 22.1253H21.4051L21.8167 23.1544L21.6623 24.5951H1.54374C1.23499 24.5951 1.02923 24.3378 1.02923 24.0806V1.59506C1.02923 1.28632 1.28652 1.02909 1.54374 1.02909H32.4162C32.725 1.02909 32.9307 1.28638 32.9307 1.59506V24.0805H32.9307Z" fill="white"/>
<path d="M3.24163 12.9149H10.7539C11.0627 12.9149 11.2684 12.7091 11.2684 12.4004V11.1655C11.2684 9.57039 9.9821 8.28401 8.38697 8.28401H7.76954C9.00446 7.97526 9.93064 6.84332 9.93064 5.50547C9.93064 3.91041 8.64426 2.62402 7.04919 2.62402C5.45413 2.62402 4.16774 3.91034 4.16774 5.50547C4.16774 6.84325 5.09392 7.97526 6.32885 8.28401H5.6085C4.01344 8.28401 2.72705 9.57039 2.72705 11.1655V12.4004C2.72705 12.7091 2.98434 12.9149 3.24163 12.9149ZM5.19684 5.50554C5.19684 4.47645 6.0201 3.65319 7.04919 3.65319C8.07829 3.65319 8.90155 4.47645 8.90155 5.50554C8.90155 6.53464 8.07829 7.3579 7.04919 7.3579C6.0201 7.3579 5.19684 6.53464 5.19684 5.50554ZM3.75614 11.1655C3.75614 10.1364 4.57941 9.3131 5.6085 9.3131H8.43849C9.46759 9.3131 10.2908 10.1364 10.2908 11.1655V11.8858H3.75614V11.1655Z" fill="white"/>
<path d="M24.9038 20.5303C26.962 20.5303 28.6085 18.8837 28.6085 16.8256C28.6085 14.7674 26.962 13.1208 24.9038 13.1208C22.8456 13.1208 21.1991 14.7674 21.1991 16.8256C21.1991 18.8837 22.8456 20.5303 24.9038 20.5303ZM24.9038 14.2014C26.396 14.2014 27.5794 15.3849 27.5794 16.877C27.5794 18.3692 26.396 19.5526 24.9038 19.5526C23.4117 19.5526 22.2282 18.3692 22.2282 16.877C22.2282 15.3848 23.4117 14.2014 24.9038 14.2014Z" fill="white"/>
<path d="M29.0716 3.13867H14.047C13.7382 3.13867 13.5325 3.3445 13.5325 3.65318C13.5325 3.96187 13.7383 4.1677 14.047 4.1677H29.0716C29.3803 4.1677 29.5861 3.96187 29.5861 3.65318C29.5861 3.3445 29.3803 3.13867 29.0716 3.13867Z" fill="white"/>
<path d="M29.0716 6.58618H14.047C13.7382 6.58618 13.5325 6.79201 13.5325 7.10069C13.5325 7.40937 13.7383 7.61521 14.047 7.61521H29.0716C29.3803 7.61521 29.5861 7.40937 29.5861 7.10069C29.5861 6.79201 29.3803 6.58618 29.0716 6.58618Z" fill="white"/>
<path d="M15.7964 15.179H3.08727C2.77852 15.179 2.57275 15.3848 2.57275 15.6935C2.57275 16.0021 2.77859 16.208 3.08727 16.208H15.7965C16.1052 16.208 16.311 16.0021 16.311 15.6935C16.311 15.3848 16.1051 15.179 15.7964 15.179Z" fill="white"/>
<path d="M15.7964 18.2148H3.08727C2.77852 18.2148 2.57275 18.4207 2.57275 18.7294C2.57275 19.038 2.77859 19.2439 3.08727 19.2439H15.7965C16.1052 19.2439 16.311 19.038 16.311 18.7294C16.311 18.4207 16.0537 18.2148 15.7964 18.2148Z" fill="white"/>
<path d="M15.7964 21.2505H3.08727C2.77852 21.2505 2.57275 21.4563 2.57275 21.765C2.57275 22.0737 2.77859 22.2795 3.08727 22.2795H15.7965C16.1052 22.2795 16.311 22.0737 16.311 21.765C16.311 21.4563 16.0537 21.2505 15.7964 21.2505Z" fill="white"/>
</svg>
