<svg width="80" height="45" viewBox="0 0 80 45" fill="none" xmlns="http://www.w3.org/2000/svg">
<path d="M10.0417 16.0528C10.0417 12.2219 13.9086 9.10524 18.6616 9.10524H27.2813V1.88905C27.2813 0.845792 26.2319 0 24.9375 0H2.34375C1.04937 0 0 0.845792 0 1.88905V42.3567C0 43.4 1.04937 44.2458 2.34375 44.2458H24.9375C26.2319 44.2458 27.2813 43.4 27.2813 42.3567V23.0002H18.6616C13.9086 23.0004 10.0417 19.8837 10.0417 16.0528V16.0528Z" fill="#393C4B"/>
<path d="M14.7285 16.0528C14.7285 17.8004 16.4926 19.2222 18.6609 19.2222C20.8291 19.2222 22.593 17.8004 22.593 16.0528C22.593 14.3052 20.8291 12.8834 18.6609 12.8834C16.4926 12.8834 14.7285 14.3052 14.7285 16.0528Z" fill="#393C4B"/>
<path d="M59.8001 12.8835L51.9355 19.2222H60.3688L68.2334 12.8835H59.8001Z" fill="#393C4B"/>
<path d="M44.7356 12.8835L36.8711 19.2222H45.3047L53.1692 12.8835H44.7356Z" fill="#393C4B"/>
<path d="M26.3281 12.8835C26.9358 13.8346 27.2812 14.9114 27.2812 16.0528C27.2812 17.1942 26.9358 18.2712 26.3281 19.2222H30.2428L38.1073 12.8835H26.3281Z" fill="#393C4B"/>
<path d="M78.748 12.8835H74.8606L66.9961 19.2222H78.748C79.4391 19.2222 79.9994 18.7706 79.9994 18.2136V13.8921C79.9994 13.335 79.4391 12.8835 78.748 12.8835V12.8835Z" fill="#393C4B"/>
</svg>
