<svg width="47" height="59" viewBox="0 0 47 59" fill="none" xmlns="http://www.w3.org/2000/svg">
<path d="M42.5836 41.9969L33.1808 35.7024V15.7899L42.5836 9.49531C42.7144 9.39615 42.8025 9.25055 42.8299 9.08831C42.8573 8.92606 42.822 8.75943 42.7311 8.62248C42.6402 8.48554 42.5007 8.38863 42.341 8.35158C42.1814 8.31454 42.0137 8.34015 41.8722 8.42317L32.3455 14.8007H14.9371L5.41505 8.42317C5.27345 8.33146 5.10165 8.29927 4.93665 8.33353C4.77165 8.36779 4.62665 8.46577 4.53288 8.60635C4.43911 8.74694 4.40408 8.91888 4.43533 9.08515C4.46658 9.25143 4.56161 9.39872 4.69995 9.49531L14.1018 15.7899V18.6698L4.95606 15.8784C4.87373 15.8468 4.7858 15.8325 4.69775 15.8365C4.60969 15.8404 4.52339 15.8626 4.44421 15.9014C4.36503 15.9403 4.29467 15.9952 4.2375 16.0626C4.18032 16.1299 4.13756 16.2084 4.11188 16.2931C4.08619 16.3777 4.07812 16.4668 4.08818 16.5548C4.09824 16.6427 4.12621 16.7276 4.17035 16.8043C4.21448 16.8809 4.27384 16.9476 4.34474 17.0002C4.41564 17.0528 4.49655 17.0901 4.58245 17.11L14.1009 20.0158V22.6956L4.80735 22.1425C4.63693 22.1325 4.46952 22.1909 4.34196 22.3048C4.21439 22.4187 4.13712 22.5789 4.12714 22.75C4.11715 22.9212 4.17528 23.0893 4.28873 23.2174C4.40218 23.3455 4.56166 23.4231 4.73208 23.4331L14.1009 23.9863V27.412L4.73208 27.9651C4.56166 27.97 4.40015 28.0426 4.28308 28.1671C4.16602 28.2916 4.10299 28.4577 4.10786 28.6288C4.11273 28.8 4.1851 28.9622 4.30905 29.0797C4.433 29.1973 4.59837 29.2606 4.7688 29.2557H4.80735L14.1009 28.7026V31.3825L4.58337 34.2864C4.43813 34.3327 4.31403 34.4294 4.23322 34.5592C4.15242 34.689 4.12017 34.8433 4.14223 34.9948C4.16429 35.1462 4.23923 35.2848 4.35366 35.3859C4.4681 35.487 4.61458 35.5439 4.76696 35.5466C4.82915 35.5461 4.89096 35.5368 4.95055 35.5189L14.1018 32.7266V35.7015L4.69995 41.9969C4.56161 42.0935 4.46658 42.2408 4.43533 42.4071C4.40408 42.5734 4.43911 42.7453 4.53288 42.8859C4.62665 43.0265 4.77165 43.1245 4.93665 43.1587C5.10165 43.193 5.27345 43.1608 5.41505 43.0691L14.9371 36.6906H32.3455L41.8722 43.0682C41.9421 43.1212 42.022 43.1592 42.1071 43.1801C42.1922 43.2009 42.2806 43.2041 42.3669 43.1894C42.4533 43.1747 42.5357 43.1424 42.6092 43.0945C42.6826 43.0466 42.7456 42.9842 42.7941 42.911C42.8427 42.8378 42.8758 42.7555 42.8916 42.6689C42.9073 42.5824 42.9052 42.4936 42.8855 42.4079C42.8658 42.3222 42.8288 42.2415 42.7769 42.1706C42.725 42.0998 42.6592 42.0404 42.5836 41.996V41.9969ZM20.389 35.3216V24.544H26.8955V35.3216H20.389ZM27.5381 23.2561H19.7473C19.5769 23.2561 19.4134 23.3241 19.2929 23.4451C19.1724 23.5662 19.1047 23.7303 19.1047 23.9015V35.4H15.3842V16.0886H31.8984V35.4H28.1807V23.9005C28.1804 23.7295 28.1126 23.5656 27.9921 23.4448C27.8717 23.324 27.7084 23.2561 27.5381 23.2561Z" fill="white"/>
<path d="M14.3274 10.786C14.4437 10.8854 14.5915 10.94 14.7442 10.9399H32.5408C32.6926 10.9393 32.8393 10.8848 32.9548 10.786L39.5082 5.16252C39.5791 5.10982 39.6385 5.04303 39.6826 4.9663C39.7267 4.88956 39.7546 4.80454 39.7645 4.71651C39.7744 4.62848 39.7662 4.53934 39.7404 4.45464C39.7145 4.36994 39.6716 4.2915 39.6142 4.22419C39.5569 4.15688 39.4863 4.10215 39.407 4.06342C39.3276 4.02468 39.2412 4.00276 39.1531 3.99903C39.0649 3.9953 38.977 4.00983 38.8947 4.04172C38.8124 4.07362 38.7375 4.12219 38.6747 4.18441L32.3012 9.65666H14.981L8.60756 4.17795C8.54476 4.11573 8.46988 4.06716 8.38758 4.03527C8.30528 4.00338 8.21732 3.98885 8.12918 3.99258C8.04104 3.99631 7.95462 4.01823 7.87528 4.05696C7.79595 4.0957 7.7254 4.15043 7.66804 4.21773C7.61069 4.28504 7.56774 4.36349 7.54189 4.44819C7.51603 4.53289 7.50782 4.62203 7.51777 4.71006C7.52771 4.79808 7.5556 4.88311 7.59969 4.95984C7.64378 5.03658 7.70313 5.10337 7.77404 5.15606L14.3274 10.786Z" fill="white"/>
<path d="M41.97 17.3838L36.71 19.7207C36.5965 19.7714 36.5 19.8539 36.4322 19.9585C36.3644 20.063 36.3283 20.1851 36.3281 20.3098V27.4627C36.3283 27.5898 36.3658 27.7141 36.436 27.8198C36.5063 27.9256 36.606 28.0082 36.7229 28.0573L38.8424 28.9413H38.8489L41.9828 30.2486C42.08 30.2887 42.1855 30.3042 42.2901 30.2939C42.3947 30.2835 42.4952 30.2475 42.5827 30.1891C42.6702 30.1307 42.7421 30.0516 42.7921 29.9588C42.8422 29.866 42.8687 29.7623 42.8696 29.6567V17.9765C42.8692 17.8695 42.8424 17.7642 42.7915 17.6701C42.7405 17.5761 42.667 17.4962 42.5777 17.4378C42.4884 17.3793 42.386 17.3442 42.2797 17.3354C42.1735 17.3266 42.0667 17.3445 41.969 17.3875L41.97 17.3838ZM41.5844 23.1704H39.7356V19.7843L41.5844 18.962V23.1704ZM38.4496 20.3541V23.1704H37.6069V20.7283L38.4496 20.3541ZM37.6069 24.4583H38.4496V27.3843L37.6069 27.0331V24.4583ZM39.732 27.9199V24.4583H41.5844V28.6915L39.732 27.9199Z" fill="white"/>
</svg>
