<svg width="26" height="26" viewBox="0 0 26 26" fill="none" xmlns="http://www.w3.org/2000/svg">
<path d="M13 0C20.168 0 26 5.83197 26 13C26 20.168 20.168 26 13 26C5.83197 26 0 20.168 0 13C0 5.83197 5.83197 0 13 0ZM13 24.7011C19.4523 24.7011 24.7011 19.4523 24.7011 13C24.7011 6.54772 19.4523 1.29894 13 1.29894C6.54772 1.29894 1.29894 6.54772 1.29894 13C1.29894 19.4523 6.54772 24.7011 13 24.7011Z" fill="white"/>
<path d="M9.80835 14.5375L12.3532 17.0824V7.35887C12.3532 6.99835 12.6448 6.70675 13.0053 6.70675C13.3658 6.70675 13.6574 6.99835 13.6574 7.35887V17.0771L16.2023 14.5322C16.3295 14.405 16.4939 14.3413 16.6636 14.3413C16.8332 14.3413 16.9976 14.405 17.1248 14.5322C17.3793 14.7867 17.3793 15.1949 17.1248 15.4494L13.4719 19.1023C13.2174 19.3568 12.8092 19.3568 12.5547 19.1023L8.90174 15.4494C8.64726 15.1949 8.64726 14.7867 8.90174 14.5322C9.14032 14.283 9.55386 14.283 9.80835 14.5375Z" fill="white"/>
</svg>
