<svg width="22" height="32" viewBox="0 0 22 32" fill="none" xmlns="http://www.w3.org/2000/svg">
<path d="M11 0C4.93472 0 0 4.78519 0 10.6667C0 12.4323 0.455231 14.1829 1.32064 15.7357L10.3985 31.6562C10.5193 31.8685 10.7496 32 11 32C11.2504 32 11.4807 31.8685 11.6015 31.6562L20.6827 15.7304C21.5448 14.1829 22 12.4323 22 10.6666C22 4.78519 17.0653 0 11 0ZM11 16C7.96736 16 5.50003 13.6074 5.50003 10.6667C5.50003 7.72594 7.96736 5.33337 11 5.33337C14.0326 5.33337 16.5 7.72594 16.5 10.6667C16.5 13.6074 14.0326 16 11 16Z" fill="#F58220"/>
</svg>
