<svg width="32" height="32" viewBox="0 0 32 32" fill="none" xmlns="http://www.w3.org/2000/svg">
<path d="M27.3137 4.68631C24.2917 1.66431 20.2738 0 16 0C11.7262 0 7.70825 1.66431 4.68625 4.68631C1.66425 7.70831 0 11.7262 0 16C0 20.2738 1.66425 24.2917 4.68625 27.3137C7.70825 30.3356 11.7262 32 16 32C20.2738 32 24.2917 30.3357 27.3137 27.3137C30.3357 24.2917 32 20.2738 32 16C32 11.7262 30.3357 7.70825 27.3137 4.68631ZM16 28.8595C8.90919 28.8595 3.1405 23.0907 3.1405 16C3.1405 15.9884 3.14088 15.9769 3.14094 15.9654C3.14094 15.9624 3.1405 15.9596 3.1405 15.9567C3.1405 15.9518 3.14112 15.947 3.14125 15.9421C3.17244 8.93631 8.83412 3.2365 15.8252 3.14275C15.8399 3.14206 15.8544 3.14056 15.8692 3.14056C15.8781 3.14056 15.8867 3.14162 15.8955 3.14188C15.9304 3.14162 15.9651 3.14056 16.0001 3.14056C23.0909 3.14056 28.8596 8.90931 28.8596 16.0001C28.8596 23.0908 23.0908 28.8595 16 28.8595Z" fill="#393C4B"/>
<path d="M25.7669 16.7725C25.244 16.7725 24.8201 16.3486 24.8201 15.8258C24.8201 15.3029 25.244 14.879 25.7669 14.879H26.9081C26.3721 9.62425 22.1104 5.45569 16.8148 5.06431V6.05775C16.8148 6.58063 16.3909 7.0045 15.8681 7.0045C15.3452 7.0045 14.9213 6.58063 14.9213 6.05775V5.08694C9.70406 5.59819 5.54825 9.78081 5.07806 15.0098H6.10006C6.62294 15.0098 7.04681 15.4337 7.04681 15.9566C7.04681 16.4794 6.62294 16.9033 6.10006 16.9033H5.07031C5.50563 22.2165 9.74475 26.4686 15.0522 26.9247V25.7245C15.0522 25.2016 15.4761 24.7778 15.9989 24.7778C16.5218 24.7778 16.9457 25.2016 16.9457 25.7245V26.9247C22.2966 26.4649 26.5615 22.1465 26.9374 16.7725H25.7669ZM19.8314 13.5064L16.6684 16.6694C16.4909 16.847 16.2501 16.9468 15.999 16.9468C15.7479 16.9468 15.5071 16.847 15.3296 16.6694L9.82375 11.1636C9.454 10.7939 9.454 10.1945 9.82375 9.82475C10.1934 9.455 10.7929 9.455 11.1626 9.82475L15.9991 14.6611L18.4927 12.1675C18.8624 11.7978 19.4618 11.7978 19.8316 12.1675C20.2012 12.5372 20.2012 13.1367 19.8314 13.5064Z" fill="#393C4B"/>
</svg>
