<svg width="235" height="21" viewBox="0 0 235 21" fill="none" xmlns="http://www.w3.org/2000/svg">
<path d="M0 2.3L4.6 0V11.3H7.1L13.8 5.5H19.4L10.8 12.8L20.4 20.8H14.2L7.1 14.9L4.4 15L4.6 20.8H0V2.3Z" fill="white"/>
<path d="M50.8 5.8996H48V20.5996H50.8V14.2996H52.1L57.5 20.5996H61.1L54.5 13.0996L60.5 5.8996H57L52 11.9996H50.8V5.8996ZM61.5 12.8996C61.5 19.3996 62.5 20.6996 67.8 20.6996C72.7 20.6996 74.1 19.3996 74.1 12.8996C74.1 7.2996 72.7 5.6996 67.8 5.6996C62.8 5.6996 61.5 7.2996 61.5 12.8996ZM64.4 13.1996C64.4 8.3996 64.9 8.09961 67.8 8.09961C70.6 8.09961 71.2 8.4996 71.2 13.1996C71.2 17.6996 70.7 18.2996 67.8 18.2996C64.9 18.3996 64.4 17.8996 64.4 13.1996ZM76.5 5.8996V20.5996H79.3V8.29961L83.9 20.5996H86.4L91 8.1996V20.5996H93.8V5.8996H89L85.1 16.7996H85L81 5.8996H76.5ZM96.5 5.8996V20.5996H99.3V8.29961H106.2V20.5996H109V5.8996H96.5ZM112.9 5.8996V16.8996C112.9 17.6996 112.6 18.3996 111.4 18.3996C111.2 18.3996 110.8 18.3996 110.5 18.2996V20.5996C111 20.6996 111.5 20.6996 111.9 20.6996C114.7 20.6996 115.6 18.7996 115.6 16.5996V8.1996H121.2V20.4996H124V5.79961H112.9V5.8996ZM129.5 8.1996H136.7V5.8996H126.7V20.5996H136.7V18.2996H129.5V14.2996H136.4V11.9996H129.5V8.1996ZM141.7 5.8996H138.9V20.5996H141.7V14.2996H143L148.4 20.5996H152L145.4 13.0996L151.4 5.8996H147.9L142.9 11.9996H141.7V5.8996ZM162 15.2996V16.1996C162 17.8996 161.2 18.2996 158.6 18.2996C156 18.2996 155.3 17.4996 155.3 13.1996C155.3 8.7996 155.9 7.9996 158.5 7.9996C161.1 7.9996 161.7 8.3996 161.9 10.6996H164.7C164.5 7.2996 163.5 5.59961 158.6 5.59961C153.7 5.59961 152.5 7.7996 152.5 12.8996C152.5 19.0996 153.9 20.6996 158.7 20.6996C163.2 20.6996 164.8 19.4996 164.8 16.0996V15.1996H162V15.2996Z" fill="white"/>
<path d="M176.3 15.3002V16.2002C176.3 17.9002 175.5 18.3002 172.9 18.3002C170.3 18.3002 169.6 17.5002 169.6 13.2002C169.6 8.8002 170.2 8.0002 172.8 8.0002C175.4 8.0002 176 8.4002 176.2 10.7002H179C178.8 7.3002 177.8 5.6002 172.9 5.6002C168 5.6002 166.8 7.80019 166.8 12.9002C166.8 19.1002 168.2 20.7002 173 20.7002C177.5 20.7002 179.1 19.5002 179.1 16.1002V15.2002H176.3V15.3002ZM187.3 8.3002H191.6V5.90019H180.2V8.3002H184.5V20.6002H187.3V8.3002ZM196 15.8002H199.7C203.6 15.8002 204.9 14.8002 204.9 10.7002C204.9 6.7002 203 5.90019 199.4 5.90019H193.2V20.6002H196V15.8002ZM196 8.3002H199.4C201.3 8.3002 202.1 8.9002 202.1 11.0002C202.1 12.9002 201.4 13.4002 199.4 13.4002H196V8.3002ZM207.1 12.9002C207.1 19.4002 208.1 20.7002 213.4 20.7002C218.3 20.7002 219.7 19.4002 219.7 12.9002C219.7 7.30019 218.3 5.7002 213.4 5.7002C208.4 5.7002 207.1 7.30019 207.1 12.9002ZM210 13.2002C210 8.4002 210.5 8.1002 213.4 8.1002C216.2 8.1002 216.8 8.5002 216.8 13.2002C216.8 17.7002 216.3 18.3002 213.4 18.3002C210.4 18.4002 210 17.9002 210 13.2002ZM230.9 5.90019L224.7 18.2002C224.9 17.1002 224.9 16.0002 224.9 15.6002V5.90019H222.1V20.6002H226.1L232.3 8.3002C232.1 9.4002 232.1 10.4002 232.1 10.9002V20.6002H234.9V5.90019H230.9ZM228.2 5.0002C230.1 5.0002 231.6 4.4002 231.6 2.2002H229.8C229.8 3.1002 229.5 3.40019 228.2 3.40019C227 3.40019 226.7 3.1002 226.7 2.2002H224.9C224.9 4.4002 226.3 5.0002 228.2 5.0002Z" fill="#F58220"/>
<path d="M37 10.8H41.4C41.4 10.8 42.5 6.4 38.5 5.5H25.9C24.9 5.6 22.9 6.2 23.1 8.2L26.5 10.9C26.5 10.9 26.9 9.30001 28.5 9.10001H35.8C35.9 9.00001 37.4 9.1 37 10.8Z" fill="white"/>
<path d="M36.8 15.1004H41.4C41.4 15.1004 42.4 19.6004 38.6 20.7004H25.9C25.9 20.7004 22.6 19.5004 22.2 16.5004V10.0004L19 7.3004L20.4 5.90039L29.3 13.9004H26.5C26.5 13.9004 25.7 16.5004 28.1 17.1004L35.6 17.2004C36.2 17.4004 37.7 16.3004 36.8 15.1004Z" fill="#F58220"/>
<path d="M18.5 11.5996H20V10.0996H18.5V11.5996Z" fill="white"/>
<path d="M16.6 13.3H17.9V12H16.6V13.3Z" fill="white"/>
<path d="M18.5 13.3H20V12H18.5V13.3Z" fill="white"/>
<path d="M16.6 11.3996H17.9V10.0996H16.6V11.3996Z" fill="white"/>
</svg>
