<svg width="235" height="21" viewBox="0 0 235 21" fill="none" xmlns="http://www.w3.org/2000/svg">
<path d="M0 2.3L4.6 0V11.3H7.1L13.8 5.5H19.4L10.8 12.8L20.4 20.8H14.2L7.1 14.9L4.4 15L4.6 20.8H0V2.3Z" fill="#174477"/>
<path d="M50.8 5.89996H48V20.6H50.8V14.3H52.1L57.5 20.6H61.1L54.5 13.1L60.5 5.89996H57L52 12H50.8V5.89996ZM61.5 12.9C61.5 19.4 62.5 20.7 67.8 20.7C72.7 20.7 74.1 19.4 74.1 12.9C74.1 7.29996 72.7 5.69997 67.8 5.69997C62.8 5.69997 61.5 7.29996 61.5 12.9ZM64.4 13.2C64.4 8.39997 64.9 8.09998 67.8 8.09998C70.6 8.09998 71.2 8.49997 71.2 13.2C71.2 17.7 70.7 18.3 67.8 18.3C64.9 18.4 64.4 17.9 64.4 13.2ZM76.5 5.89996V20.6H79.3V8.29997L83.9 20.6H86.4L91 8.19997V20.6H93.8V5.89996H89L85.1 16.8H85L81 5.89996H76.5ZM96.5 5.89996V20.6H99.3V8.29997H106.2V20.6H109V5.89996H96.5ZM112.9 5.89996V16.9C112.9 17.7 112.6 18.4 111.4 18.4C111.2 18.4 110.8 18.4 110.5 18.3V20.6C111 20.7 111.5 20.7 111.9 20.7C114.7 20.7 115.6 18.8 115.6 16.6V8.19997H121.2V20.5H124V5.79997H112.9V5.89996ZM129.5 8.19997H136.7V5.89996H126.7V20.6H136.7V18.3H129.5V14.3H136.4V12H129.5V8.19997ZM141.7 5.89996H138.9V20.6H141.7V14.3H143L148.4 20.6H152L145.4 13.1L151.4 5.89996H147.9L142.9 12H141.7V5.89996ZM162 15.3V16.2C162 17.9 161.2 18.3 158.6 18.3C156 18.3 155.3 17.5 155.3 13.2C155.3 8.79997 155.9 7.99997 158.5 7.99997C161.1 7.99997 161.7 8.39997 161.9 10.7H164.7C164.5 7.29997 163.5 5.59998 158.6 5.59998C153.7 5.59998 152.5 7.79996 152.5 12.9C152.5 19.1 153.9 20.7 158.7 20.7C163.2 20.7 164.8 19.5 164.8 16.1V15.2H162V15.3Z" fill="#174477"/>
<path d="M176.3 15.3V16.2C176.3 17.9 175.5 18.3 172.9 18.3C170.3 18.3 169.6 17.5 169.6 13.2C169.6 8.79995 170.2 7.99995 172.8 7.99995C175.4 7.99995 176 8.39995 176.2 10.7H179C178.8 7.29995 177.8 5.59996 172.9 5.59996C168 5.59996 166.8 7.79995 166.8 12.8999C166.8 19.0999 168.2 20.7 173 20.7C177.5 20.7 179.1 19.5 179.1 16.1V15.2H176.3V15.3ZM187.3 8.29996H191.6V5.89995H180.2V8.29996H184.5V20.6H187.3V8.29996ZM196 15.8H199.7C203.6 15.8 204.9 14.8 204.9 10.7C204.9 6.69995 203 5.89995 199.4 5.89995H193.2V20.6H196V15.8ZM196 8.29996H199.4C201.3 8.29996 202.1 8.89995 202.1 11C202.1 12.9 201.4 13.3999 199.4 13.3999H196V8.29996ZM207.1 12.8999C207.1 19.3999 208.1 20.7 213.4 20.7C218.3 20.7 219.7 19.3999 219.7 12.8999C219.7 7.29995 218.3 5.69995 213.4 5.69995C208.4 5.69995 207.1 7.29995 207.1 12.8999ZM210 13.2C210 8.39995 210.5 8.09996 213.4 8.09996C216.2 8.09996 216.8 8.49995 216.8 13.2C216.8 17.7 216.3 18.3 213.4 18.3C210.4 18.4 210 17.9 210 13.2ZM230.9 5.89995L224.7 18.2C224.9 17.1 224.9 16 224.9 15.6V5.89995H222.1V20.6H226.1L232.3 8.29996C232.1 9.39996 232.1 10.3999 232.1 10.8999V20.6H234.9V5.89995H230.9ZM228.2 4.99995C230.1 4.99995 231.6 4.39995 231.6 2.19995H229.8C229.8 3.09995 229.5 3.39995 228.2 3.39995C227 3.39995 226.7 3.09995 226.7 2.19995H224.9C224.9 4.39995 226.3 4.99995 228.2 4.99995Z" fill="#F58220"/>
<path d="M37 10.8H41.4C41.4 10.8 42.5 6.4 38.5 5.5H25.9C24.9 5.6 22.9 6.2 23.1 8.2L26.5 10.9C26.5 10.9 26.9 9.30001 28.5 9.10001H35.8C35.9 9.00001 37.4 9.1 37 10.8Z" fill="#174477"/>
<path d="M36.8 15.1H41.4C41.4 15.1 42.4 19.6 38.6 20.7H25.9C25.9 20.7 22.6 19.5 22.2 16.5V10L19 7.30003L20.4 5.90002L29.3 13.9H26.5C26.5 13.9 25.7 16.5 28.1 17.1L35.6 17.2C36.2 17.4 37.7 16.3 36.8 15.1Z" fill="#F58220"/>
<path d="M18.5 11.6H20V10.1H18.5V11.6Z" fill="#174477"/>
<path d="M16.6 13.3H17.9V12H16.6V13.3Z" fill="#174477"/>
<path d="M18.5 13.3H20V12H18.5V13.3Z" fill="#174477"/>
<path d="M16.6 11.4H17.9V10.1H16.6V11.4Z" fill="#174477"/>
</svg>
