<svg width="55" height="55" viewBox="0 0 55 55" fill="none" xmlns="http://www.w3.org/2000/svg">
<g clip-path="url(#clip0)">
<path d="M55 27.5005C55 12.3132 42.6876 0.000976024 27.5003 0.00097536C12.3135 0.000974697 -5.38174e-07 12.313 -1.20203e-06 27.5001C-1.86588e-06 42.6873 12.3135 55.0006 27.5003 55.0006C42.6876 55.0006 55 42.6881 55 27.5005ZM20.2048 39.9093C19.2025 38.9065 19.202 37.2807 20.2048 36.2775L29.0542 27.4299L20.1597 18.5343C19.1574 17.5321 19.1569 15.9057 20.1597 14.9025C20.6618 14.4018 21.3185 14.1512 21.9756 14.1512C22.6326 14.1512 23.2893 14.4018 23.79 14.9034L34.111 25.2235C34.2647 25.3224 34.4111 25.4357 34.5452 25.5697C35.0577 26.0823 35.3045 26.7569 35.2926 27.4297C35.304 28.1011 35.0577 28.7769 34.5446 29.2889C34.411 29.4235 34.2645 29.5362 34.111 29.6347L23.8366 39.9091C22.8338 40.9116 21.208 40.9123 20.2048 39.9093Z" fill="#393C4B"/>
</g>
<defs>
<clipPath id="clip0">
<rect width="55" height="55" fill="#393C4B" transform="translate(55) rotate(90)"/>
</clipPath>
</defs>
</svg>
