<svg width="55" height="55" viewBox="0 0 55 55" fill="none" xmlns="http://www.w3.org/2000/svg">
<path d="M1.20204e-06 27.5005C5.38182e-07 12.3132 12.3124 0.000976024 27.4997 0.00097536C42.6865 0.000974697 55 12.313 55 27.5001C55 42.6873 42.6865 55.0006 27.4997 55.0006C12.3124 55.0006 1.86591e-06 42.6881 1.20204e-06 27.5005ZM34.7952 39.9093C35.7975 38.9065 35.798 37.2807 34.7952 36.2775L25.9458 27.4299L34.8403 18.5343C35.8426 17.5321 35.8431 15.9057 34.8403 14.9025C34.3382 14.4018 33.6815 14.1512 33.0244 14.1512C32.3674 14.1512 31.7107 14.4018 31.21 14.9034L20.889 25.2235C20.7353 25.3224 20.5889 25.4357 20.4548 25.5697C19.9423 26.0823 19.6955 26.7569 19.7074 27.4297C19.696 28.1011 19.9423 28.7769 20.4554 29.2889C20.589 29.4235 20.7355 29.5362 20.889 29.6347L31.1634 39.9091C32.1662 40.9116 33.792 40.9123 34.7952 39.9093Z" fill="#C4C4C4"/>
</svg>
