<svg width="32" height="32" viewBox="0 0 32 32" fill="none" xmlns="http://www.w3.org/2000/svg">
<circle cx="16" cy="16" r="16" fill="#7360F2"/>
<g clip-path="url(#clip0)">
<path d="M20.8743 14.8979C20.8908 12.9643 19.244 11.1918 17.2033 10.9467C17.1627 10.9418 17.1185 10.9345 17.0717 10.9268C16.9707 10.91 16.8662 10.8928 16.7608 10.8928C16.3425 10.8928 16.2307 11.1866 16.2013 11.3618C16.1727 11.5322 16.2 11.6753 16.2823 11.7872C16.4208 11.9756 16.6645 12.009 16.8603 12.0358C16.9176 12.0437 16.9718 12.0511 17.0171 12.0613C18.8506 12.4709 19.4679 13.115 19.7696 14.9329C19.777 14.9773 19.7803 15.0321 19.7838 15.0901C19.797 15.3074 19.8244 15.7595 20.3105 15.7595H20.3105C20.351 15.7595 20.3945 15.756 20.4397 15.7491C20.8924 15.6803 20.8782 15.2671 20.8714 15.0685C20.8694 15.0126 20.8676 14.9597 20.8723 14.9245C20.8736 14.9157 20.8743 14.9068 20.8743 14.8979Z" fill="white"/>
<path d="M16.6422 10.2369C16.6965 10.2408 16.7479 10.2446 16.7907 10.2511C19.8014 10.7141 21.186 12.1406 21.5697 15.1749C21.5762 15.2264 21.5772 15.2893 21.5783 15.3559C21.5821 15.593 21.59 16.0862 22.1196 16.0964L22.136 16.0966C22.3021 16.0966 22.4343 16.0465 22.5288 15.9476C22.6936 15.7751 22.6821 15.5189 22.6729 15.3131C22.6706 15.2625 22.6684 15.215 22.669 15.1733C22.7073 12.0701 20.0211 9.25603 16.9206 9.15138C16.9077 9.15096 16.8954 9.15164 16.8831 9.15338C16.877 9.15428 16.8657 9.15539 16.8463 9.15539C16.8154 9.15539 16.7774 9.1527 16.737 9.14998C16.6883 9.14666 16.633 9.14282 16.5769 9.14282C16.0832 9.14282 15.9893 9.49377 15.9773 9.70298C15.9496 10.1865 16.4174 10.2205 16.6422 10.2369Z" fill="white"/>
<path d="M21.4244 19.0964C21.3604 19.0475 21.2942 18.9969 21.2322 18.947C20.9035 18.6825 20.5538 18.4386 20.2156 18.2028C20.1454 18.1539 20.0752 18.105 20.0052 18.0559C19.572 17.7516 19.1825 17.6037 18.8145 17.6037C18.3189 17.6037 17.8868 17.8776 17.5301 18.4176C17.3721 18.657 17.1804 18.7734 16.9442 18.7734C16.8045 18.7734 16.6457 18.7335 16.4724 18.6549C15.074 18.0207 14.0755 17.0485 13.5045 15.7651C13.2284 15.1448 13.3179 14.7393 13.8037 14.4093C14.0796 14.2221 14.593 13.8735 14.5567 13.206C14.5155 12.4481 12.843 10.1673 12.1384 9.90831C11.84 9.7986 11.5265 9.79757 11.205 9.90576C10.3949 10.1781 9.81358 10.6563 9.5237 11.2887C9.24358 11.8998 9.25623 12.6173 9.56029 13.3636C10.4393 15.5215 11.6751 17.403 13.2335 18.9555C14.759 20.4753 16.6339 21.7203 18.8061 22.6556C19.0019 22.7399 19.2073 22.7858 19.3572 22.8193C19.4083 22.8308 19.4525 22.8406 19.4846 22.8494C19.5023 22.8543 19.5205 22.8569 19.5388 22.857L19.556 22.8571C19.556 22.8571 19.556 22.8571 19.556 22.8571C20.5777 22.8571 21.8045 21.9235 22.1812 20.8592C22.5113 19.9272 21.9086 19.4665 21.4244 19.0964Z" fill="white"/>
<path d="M17.0941 12.7019C16.9192 12.7063 16.5551 12.7154 16.4274 13.0861C16.3676 13.2594 16.3748 13.4098 16.4487 13.5332C16.5571 13.7143 16.7649 13.7698 16.9539 13.8003C17.6392 13.9103 17.9912 14.2892 18.0616 14.9928C18.0943 15.3209 18.3152 15.55 18.5989 15.55H18.5989C18.6198 15.55 18.6413 15.5488 18.6626 15.5462C19.0038 15.5056 19.1691 15.2549 19.1542 14.8013C19.1596 14.3278 18.9118 13.7902 18.4904 13.3621C18.0675 12.9326 17.5578 12.6907 17.0941 12.7019Z" fill="white"/>
</g>
<defs>
<clipPath id="clip0">
<rect width="13.7143" height="13.7143" fill="white" transform="translate(9.14285 9.14282)"/>
</clipPath>
</defs>
</svg>
