<svg width="32" height="32" viewBox="0 0 32 32" fill="none" xmlns="http://www.w3.org/2000/svg">
<circle cx="16" cy="16" r="16" fill="#33CE62"/>
<g clip-path="url(#clip0)">
<path d="M19.4582 16.8129C19.4271 16.7979 18.2606 16.2235 18.0533 16.1489C17.9687 16.1185 17.8781 16.0889 17.7817 16.0889C17.6241 16.0889 17.4918 16.1673 17.3888 16.3215C17.2723 16.4947 16.9195 16.907 16.8105 17.0302C16.7963 17.0465 16.7769 17.0659 16.7652 17.0659C16.7548 17.0659 16.5743 16.9916 16.5196 16.9678C15.2684 16.4243 14.3186 15.1172 14.1884 14.8968C14.1698 14.8651 14.169 14.8507 14.1688 14.8507C14.1734 14.8339 14.2155 14.7918 14.2372 14.77C14.3007 14.7071 14.3696 14.6243 14.4361 14.5441C14.4677 14.5062 14.4993 14.4681 14.5303 14.4323C14.6269 14.3199 14.6699 14.2326 14.7198 14.1315L14.7459 14.079C14.8677 13.8371 14.7637 13.6329 14.7301 13.567C14.7025 13.5118 14.21 12.3231 14.1576 12.1983C14.0317 11.8969 13.8653 11.7566 13.6341 11.7566C13.6126 11.7566 13.6341 11.7566 13.5441 11.7604C13.4345 11.765 12.8379 11.8436 12.5741 12.0098C12.2944 12.1862 11.8211 12.7484 11.8211 13.7371C11.8211 14.6269 12.3858 15.467 12.6283 15.7866C12.6343 15.7946 12.6453 15.811 12.6614 15.8345C13.5899 17.1904 14.7473 18.1953 15.9207 18.664C17.0503 19.1152 17.5852 19.1674 17.8893 19.1674C17.8893 19.1674 17.8893 19.1674 17.8893 19.1674C18.0171 19.1674 18.1194 19.1574 18.2097 19.1485L18.2669 19.143C18.6571 19.1084 19.5147 18.6641 19.7098 18.122C19.8634 17.695 19.9039 17.2285 19.8017 17.0592C19.7317 16.9441 19.611 16.8862 19.4582 16.8129Z" fill="white"/>
<path d="M15.7613 7.61902C11.428 7.61902 7.90261 11.1179 7.90261 15.4187C7.90261 16.8097 8.27487 18.1713 8.98006 19.363L7.63029 23.3445C7.60515 23.4188 7.62385 23.5008 7.67876 23.5567C7.7184 23.5972 7.77216 23.619 7.82707 23.619C7.84811 23.619 7.86931 23.6159 7.88998 23.6093L12.0417 22.29C13.1778 22.897 14.4618 23.2174 15.7614 23.2174C20.0942 23.2175 23.6193 19.7189 23.6193 15.4187C23.6193 11.1179 20.0942 7.61902 15.7613 7.61902ZM15.7613 21.5927C14.5385 21.5927 13.3541 21.2396 12.3361 20.5716C12.3018 20.5491 12.2621 20.5376 12.2221 20.5376C12.2009 20.5376 12.1797 20.5408 12.1591 20.5473L10.0794 21.2084L10.7508 19.2277C10.7725 19.1636 10.7616 19.0929 10.7216 19.0382C9.94635 17.9789 9.53653 16.7273 9.53653 15.4187C9.53653 12.0138 12.3289 9.24375 15.7613 9.24375C19.1932 9.24375 21.9853 12.0138 21.9853 15.4187C21.9853 18.8231 19.1933 21.5927 15.7613 21.5927Z" fill="white"/>
</g>
<defs>
<clipPath id="clip0">
<rect width="16" height="16" fill="white" transform="translate(7.61905 7.61902)"/>
</clipPath>
</defs>
</svg>
