<svg width="17" height="17" viewBox="0 0 17 17" fill="none" xmlns="http://www.w3.org/2000/svg">
<path d="M11.9356 0H5.06439C2.27187 0 0 2.27187 0 5.06439V11.9356C0 14.7281 2.27187 17 5.06439 17H11.9356C14.7281 17 17 14.7281 17 11.9356V5.06439C17 2.27187 14.7281 0 11.9356 0ZM15.2898 11.9356C15.2898 13.7881 13.7881 15.2898 11.9356 15.2898H5.06439C3.21194 15.2898 1.7102 13.7881 1.7102 11.9356V5.06439C1.7102 3.21191 3.21194 1.7102 5.06439 1.7102H11.9356C13.7881 1.7102 15.2898 3.21191 15.2898 5.06439V11.9356Z" fill="#323232"/>
<path d="M8.50001 4.10352C6.07561 4.10352 4.1032 6.07592 4.1032 8.50029C4.1032 10.9247 6.07561 12.8971 8.50001 12.8971C10.9244 12.8971 12.8968 10.9247 12.8968 8.50029C12.8968 6.07589 10.9244 4.10352 8.50001 4.10352ZM8.50001 11.1869C7.01622 11.1869 5.8134 9.9841 5.8134 8.50032C5.8134 7.01654 7.01626 5.81372 8.50001 5.81372C9.98379 5.81372 11.1866 7.01654 11.1866 8.50032C11.1866 9.98407 9.98376 11.1869 8.50001 11.1869Z" fill="#323232"/>
<path d="M12.9052 5.19008C13.4871 5.19008 13.9588 4.7184 13.9588 4.13654C13.9588 3.55469 13.4871 3.08301 12.9052 3.08301C12.3234 3.08301 11.8517 3.55469 11.8517 4.13654C11.8517 4.7184 12.3234 5.19008 12.9052 5.19008Z" fill="#323232"/>
</svg>
