<svg width="22" height="22" viewBox="0 0 22 22" fill="none" xmlns="http://www.w3.org/2000/svg">
<g clip-path="url(#clip0)">
<path d="M18.9341 12.6917C19.6639 13.4042 20.4341 14.0745 21.0887 14.8589C21.3778 15.2074 21.6515 15.5671 21.861 15.9716C22.1577 16.5466 21.8889 17.1794 21.3733 17.2137L18.1683 17.2122C17.3417 17.2808 16.6822 16.9481 16.1278 16.3828C15.684 15.9309 15.2731 15.4498 14.8464 14.9826C14.6715 14.7916 14.4884 14.6119 14.2697 14.4699C13.8322 14.1859 13.4524 14.2728 13.2023 14.7291C12.9477 15.1933 12.8899 15.7072 12.8649 16.2245C12.8306 16.9792 12.6024 17.1776 11.8443 17.2121C10.2242 17.2885 8.68661 17.0434 7.2582 16.2261C5.99887 15.5056 5.02236 14.4884 4.17235 13.3369C2.5175 11.0947 1.25014 8.63076 0.111121 6.09784C-0.145274 5.52717 0.0422416 5.22085 0.671906 5.20998C1.71746 5.18965 2.76289 5.19111 3.8097 5.20852C4.23466 5.21475 4.51598 5.45847 4.68007 5.85992C5.24576 7.25086 5.93794 8.57421 6.80677 9.80084C7.03816 10.1274 7.2741 10.454 7.61003 10.6839C7.98171 10.9384 8.2647 10.854 8.43954 10.44C8.55048 10.1774 8.59908 9.89464 8.62409 9.6135C8.70693 8.64614 8.71785 7.68042 8.57257 6.71646C8.48337 6.11486 8.14452 5.72539 7.5442 5.61156C7.23787 5.55351 7.28346 5.43952 7.43179 5.26468C7.68939 4.96312 7.93169 4.77539 8.4147 4.77539H12.0369C12.6071 4.88793 12.7337 5.14411 12.8118 5.71787L12.8149 9.74133C12.8087 9.96344 12.9259 10.6226 13.3259 10.7696C13.6461 10.8743 13.8572 10.6181 14.0494 10.4151C14.9166 9.49465 15.5356 8.40685 16.0885 7.28047C16.3339 6.78517 16.5449 6.27083 16.7494 5.75688C16.9009 5.37553 17.1387 5.18789 17.5682 5.19618L21.0544 5.19928C21.1578 5.19928 21.2624 5.20078 21.3625 5.21793C21.9499 5.31804 22.1109 5.57074 21.9294 6.14438C21.6436 7.04436 21.0873 7.79437 20.5435 8.54783C19.9621 9.35225 19.3403 10.1292 18.7638 10.9384C18.2341 11.6774 18.2762 12.0499 18.9341 12.6917Z" fill="#323232"/>
</g>
<defs>
<clipPath id="clip0">
<rect width="22" height="22" fill="white"/>
</clipPath>
</defs>
</svg>
